<svg width="284" height="284" viewBox="0 0 284 284" fill="none" xmlns="http://www.w3.org/2000/svg">
<rect width="31.5556" height="31.5556" transform="matrix(-1 0 0 1 63.1111 126.222)" fill="#FF2929"/>
<rect width="31.5556" height="31.5556" transform="matrix(-1 0 0 1 63.1111 94.6665)" fill="#FF2929"/>
<rect width="31.5556" height="31.5556" transform="matrix(-1 0 0 1 63.1111 63.1113)" fill="#FF2929"/>
<rect width="31.5556" height="31.5556" transform="matrix(-1 0 0 1 94.6667 126.222)" fill="#FF2929"/>
<rect width="31.5556" height="31.5556" transform="matrix(-1 0 0 1 94.6667 157.778)" fill="#FF2929"/>
<rect width="31.5556" height="31.5556" transform="matrix(-1 0 0 1 94.6667 94.6665)" fill="#FF2929"/>
<rect width="31.5556" height="31.5556" transform="matrix(-1 0 0 1 94.6667 63.1113)" fill="#FF2929"/>
<rect width="31.5556" height="31.5556" transform="matrix(-1 0 0 1 94.6667 31.5557)" fill="#FF2929"/>
<rect width="31.5556" height="31.5556" transform="matrix(-1 0 0 1 126.222 126.222)" fill="#FF2929"/>
<rect width="31.5556" height="31.5556" transform="matrix(-1 0 0 1 126.222 157.778)" fill="#FF2929"/>
<rect width="31.5556" height="31.5556" transform="matrix(-1 0 0 1 126.222 189.333)" fill="#FF2929"/>
<rect width="31.5556" height="31.5556" transform="matrix(-1 0 0 1 157.778 126.222)" fill="#FF2929"/>
<rect width="31.5556" height="31.5556" transform="matrix(-1 0 0 1 157.778 157.778)" fill="#FF2929"/>
<rect width="31.5556" height="31.5556" transform="matrix(-1 0 0 1 157.778 189.333)" fill="#FF2929"/>
<rect width="31.5556" height="31.5556" transform="matrix(-1 0 0 1 157.778 220.889)" fill="#FF2929"/>
<rect width="31.5556" height="31.5556" transform="matrix(-1 0 0 1 189.333 126.222)" fill="#FF2929"/>
<rect width="31.5556" height="31.5556" transform="matrix(-1 0 0 1 189.333 157.778)" fill="#FF2929"/>
<rect width="31.5556" height="31.5556" transform="matrix(-1 0 0 1 189.333 189.333)" fill="#FF2929"/>
<rect width="31.5556" height="31.5556" transform="matrix(-1 0 0 1 220.889 126.222)" fill="#FF2929"/>
<rect width="31.5556" height="31.5556" transform="matrix(-1 0 0 1 220.889 157.778)" fill="#FF2929"/>
<rect width="31.5556" height="31.5556" transform="matrix(-1 0 0 1 252.444 126.222)" fill="#FF2929"/>
<rect width="31.5556" height="31.5556" transform="matrix(-1 0 0 1 126.222 94.6665)" fill="#FF2929"/>
<rect width="31.5556" height="31.5556" transform="matrix(-1 0 0 1 157.778 94.6665)" fill="#FF2929"/>
<rect width="31.5556" height="31.5556" transform="matrix(-1 0 0 1 189.333 94.6665)" fill="#FF2929"/>
<rect width="31.5556" height="31.5556" transform="matrix(-1 0 0 1 220.889 94.6665)" fill="#FF2929"/>
<rect width="31.5556" height="31.5556" transform="matrix(-1 0 0 1 252.444 94.6665)" fill="#FF2929"/>
<rect width="31.5556" height="31.5556" transform="matrix(-1 0 0 1 126.222 63.1113)" fill="#FF2929"/>
<rect width="31.5556" height="31.5556" transform="matrix(-1 0 0 1 189.333 63.1113)" fill="#FF2929"/>
<rect width="31.5556" height="31.5556" transform="matrix(-1 0 0 1 220.889 63.1113)" fill="#FF2929"/>
<rect width="31.5556" height="31.5556" transform="matrix(-1 0 0 1 252.444 63.1113)" fill="#FF2929"/>
<rect width="31.5556" height="31.5556" transform="matrix(-1 0 0 1 220.889 31.5557)" fill="#FF2929"/>
<rect width="31.5556" height="31.5556" transform="matrix(-1 0 0 1 31.5555 126.222)" fill="#F7F7F7"/>
<rect width="31.5556" height="31.5556" transform="matrix(-1 0 0 1 31.5555 94.6665)" fill="#F7F7F7"/>
<rect width="31.5556" height="31.5556" transform="matrix(-1 0 0 1 31.5555 63.1113)" fill="#F7F7F7"/>
<rect width="31.5556" height="31.5556" transform="matrix(-1 0 0 1 63.1111 157.778)" fill="#F7F7F7"/>
<rect width="31.5556" height="31.5556" transform="matrix(-1 0 0 1 94.6667 189.333)" fill="#F7F7F7"/>
<rect width="31.5556" height="31.5556" transform="matrix(-1 0 0 1 94.6667 0)" fill="#F7F7F7"/>
<rect width="31.5556" height="31.5556" transform="matrix(-1 0 0 1 126.222 220.889)" fill="#F7F7F7"/>
<rect width="31.5556" height="31.5556" transform="matrix(-1 0 0 1 157.778 252.444)" fill="#F7F7F7"/>
<rect width="31.5556" height="31.5556" transform="matrix(-1 0 0 1 189.333 220.889)" fill="#F7F7F7"/>
<rect width="31.5556" height="31.5556" transform="matrix(-1 0 0 1 220.889 189.333)" fill="#F7F7F7"/>
<rect width="31.5556" height="31.5556" transform="matrix(-1 0 0 1 252.444 157.778)" fill="#F7F7F7"/>
<rect width="31.5556" height="31.5556" transform="matrix(-1 0 0 1 284 126.222)" fill="#F7F7F7"/>
<rect width="31.5556" height="31.5556" transform="matrix(-1 0 0 1 284 94.6665)" fill="#F7F7F7"/>
<rect width="31.5556" height="31.5556" transform="matrix(-1 0 0 1 157.778 63.1113)" fill="#F7F7F7"/>
<rect width="31.5556" height="31.5556" transform="matrix(-1 0 0 1 284 63.1113)" fill="#F7F7F7"/>
<rect width="31.5556" height="31.5556" transform="matrix(-1 0 0 1 126.222 31.5557)" fill="#F7F7F7"/>
<rect width="31.5556" height="31.5556" transform="matrix(-1 0 0 1 189.333 31.5557)" fill="#F7F7F7"/>
<rect width="31.5556" height="31.5556" transform="matrix(-1 0 0 1 63.1111 31.5557)" fill="#F7F7F7"/>
<rect width="31.5556" height="31.5556" transform="matrix(-1 0 0 1 252.444 31.5557)" fill="#F7F7F7"/>
<rect width="31.5556" height="31.5556" transform="matrix(-1 0 0 1 220.889 0)" fill="#F7F7F7"/>
</svg>
