<svg width="100" height="140" viewBox="0 0 100 140" fill="none" xmlns="http://www.w3.org/2000/svg">
<rect x="80" width="10" height="10" fill="#110D15"/>
<rect x="80" y="10" width="10" height="10" fill="#E7901E"/>
<rect x="90" width="10" height="10" fill="#110D15"/>
<rect x="90" y="10" width="10" height="10" fill="#110D15"/>
<rect x="90" y="50" width="10" height="10" fill="#110D15"/>
<rect x="90" y="60" width="10" height="10" fill="#110D15"/>
<rect x="80" y="70" width="10" height="10" fill="#110D15"/>
<rect x="70" y="80" width="10" height="10" fill="#110D15"/>
<rect x="60" y="90" width="10" height="10" fill="#110D15"/>
<rect x="50" y="100" width="10" height="10" fill="#110D15"/>
<rect x="40" y="110" width="10" height="10" fill="#110D15"/>
<rect x="30" y="120" width="10" height="10" fill="#110D15"/>
<rect x="20" y="130" width="10" height="10" fill="#110D15"/>
<rect x="10" y="130" width="10" height="10" fill="#110D15"/>
<rect x="10" y="120" width="10" height="10" fill="#110D15"/>
<rect x="20" y="110" width="10" height="10" fill="#110D15"/>
<rect x="20" y="100" width="10" height="10" fill="#110D15"/>
<rect x="30" y="90" width="10" height="10" fill="#110D15"/>
<rect x="30" y="80" width="10" height="10" fill="#110D15"/>
<rect x="30" y="70" width="10" height="10" fill="#110D15"/>
<rect x="40" y="70" width="10" height="10" fill="#110D15"/>
<rect x="20" y="70" width="10" height="10" fill="#110D15"/>
<rect x="10" y="70" width="10" height="10" fill="#110D15"/>
<rect y="70" width="10" height="10" fill="#110D15"/>
<rect y="60" width="10" height="10" fill="#110D15"/>
<rect y="50" width="10" height="10" fill="#110D15"/>
<rect x="10" y="40" width="10" height="10" fill="#110D15"/>
<rect x="10" y="30" width="10" height="10" fill="#110D15"/>
<rect x="20" y="20" width="10" height="10" fill="#110D15"/>
<rect x="30" width="10" height="10" fill="#110D15"/>
<rect x="40" width="10" height="10" fill="#110D15"/>
<rect x="60" width="10" height="10" fill="#110D15"/>
<rect x="50" width="10" height="10" fill="#110D15"/>
<rect x="70" width="10" height="10" fill="#110D15"/>
<rect x="20" y="10" width="10" height="10" fill="#110D15"/>
<rect x="30" y="10" width="10" height="10" fill="#FDFB97"/>
<rect x="40" y="10" width="10" height="10" fill="#F3CB1E"/>
<rect x="60" y="10" width="10" height="10" fill="#F3CB1E"/>
<rect x="50" y="10" width="10" height="10" fill="#F3CB1E"/>
<rect x="70" y="10" width="10" height="10" fill="#F3CB1E"/>
<rect x="30" y="20" width="10" height="10" fill="#FDFB97"/>
<rect x="20" y="30" width="10" height="10" fill="#FDFB97"/>
<rect x="20" y="40" width="10" height="10" fill="#FDFB97"/>
<rect x="10" y="50" width="10" height="10" fill="#FDFB97"/>
<rect x="50" y="50" width="10" height="10" fill="#F3CB1E"/>
<rect x="10" y="60" width="10" height="10" fill="#FDFB97"/>
<rect x="50" y="60" width="10" height="10" fill="#F3CB1E"/>
<rect x="50" y="70" width="10" height="10" fill="#F3CB1E"/>
<rect x="40" y="80" width="10" height="10" fill="#FDFB97"/>
<rect x="40" y="90" width="10" height="10" fill="#FDFB97"/>
<rect x="30" y="100" width="10" height="10" fill="#FDFB97"/>
<rect x="30" y="110" width="10" height="10" fill="#FDFB97"/>
<rect x="20" y="120" width="10" height="10" fill="#FDFB97"/>
<rect x="40" y="20" width="10" height="10" fill="#F3CB1E"/>
<rect x="20" y="50" width="10" height="10" fill="#F3CB1E"/>
<rect x="60" y="50" width="10" height="10" fill="#F3CB1E"/>
<rect x="30" y="40" width="10" height="10" fill="#F3CB1E"/>
<rect x="30" y="30" width="10" height="10" fill="#F3CB1E"/>
<rect x="60" y="60" width="10" height="10" fill="#F3CB1E"/>
<rect x="60" y="70" width="10" height="10" fill="#F3CB1E"/>
<rect x="20" y="60" width="10" height="10" fill="#F3CB1E"/>
<rect x="50" y="80" width="10" height="10" fill="#F3CB1E"/>
<rect x="50" y="90" width="10" height="10" fill="#E7901E"/>
<rect x="40" y="100" width="10" height="10" fill="#E7901E"/>
<rect x="40" y="50" width="10" height="10" fill="#F3CB1E"/>
<rect x="80" y="50" width="10" height="10" fill="#FDFB97"/>
<rect x="50" y="40" width="10" height="10" fill="#E7901E"/>
<rect x="60" y="20" width="10" height="10" fill="#F3CB1E"/>
<rect x="30" y="50" width="10" height="10" fill="#F3CB1E"/>
<rect x="70" y="50" width="10" height="10" fill="#FDFB97"/>
<rect x="50" y="30" width="10" height="10" fill="#F3CB1E"/>
<rect x="40" y="40" width="10" height="10" fill="#F3CB1E"/>
<rect x="40" y="60" width="10" height="10" fill="#F3CB1E"/>
<rect x="80" y="60" width="10" height="10" fill="#E7901E"/>
<rect x="50" y="20" width="10" height="10" fill="#F3CB1E"/>
<rect x="70" y="60" width="10" height="10" fill="#F3CB1E"/>
<rect x="70" y="70" width="10" height="10" fill="#E7901E"/>
<rect x="40" y="30" width="10" height="10" fill="#F3CB1E"/>
<rect x="30" y="60" width="10" height="10" fill="#F3CB1E"/>
<rect x="60" y="80" width="10" height="10" fill="#E7901E"/>
<rect x="70" y="20" width="10" height="10" fill="#E7901E"/>
<rect x="60" y="30" width="10" height="10" fill="#E7901E"/>
<rect x="80" y="20" width="10" height="10" fill="#110D15"/>
<rect x="70" y="30" width="10" height="10" fill="#110D15"/>
<rect x="70" y="40" width="10" height="10" fill="#110D15"/>
<rect x="60" y="40" width="10" height="10" fill="#110D15"/>
<rect x="90" y="40" width="10" height="10" fill="#110D15"/>
<rect x="80" y="40" width="10" height="10" fill="#110D15"/>
</svg>
