<svg width="290" height="220" viewBox="0 0 290 220" fill="none" xmlns="http://www.w3.org/2000/svg">
<rect x="170" y="210" width="10" height="10" transform="rotate(90 170 210)" fill="#24201B"/>
<rect y="70" width="10" height="10" fill="#24201B"/>
<rect x="150" y="210" width="10" height="10" transform="rotate(90 150 210)" fill="#24201B"/>
<rect x="220" y="80" width="10" height="10" fill="#24201B"/>
<rect x="210" y="70" width="10" height="10" fill="#24201B"/>
<rect x="220" y="60" width="10" height="10" fill="#24201B"/>
<rect x="220" y="50" width="10" height="10" fill="#24201B"/>
<rect x="230" y="40" width="10" height="10" fill="#24201B"/>
<rect x="240" y="30" width="10" height="10" fill="#24201B"/>
<rect x="250" y="30" width="10" height="10" fill="#24201B"/>
<rect x="260" y="30" width="10" height="10" fill="#24201B"/>
<rect x="270" y="30" width="10" height="10" fill="#24201B"/>
<rect x="280" y="20" width="10" height="10" fill="#24201B"/>
<rect x="280" y="10" width="10" height="10" fill="#24201B"/>
<rect x="270" width="10" height="10" fill="#24201B"/>
<rect x="260" width="10" height="10" fill="#24201B"/>
<rect x="250" width="10" height="10" fill="#24201B"/>
<rect x="240" width="10" height="10" fill="#24201B"/>
<rect x="230" width="10" height="10" fill="#24201B"/>
<rect x="220" width="10" height="10" fill="#24201B"/>
<rect x="210" y="10" width="10" height="10" fill="#24201B"/>
<rect x="220" y="10" width="10" height="10" fill="#E3D3BA"/>
<rect x="210" y="20" width="10" height="10" fill="#E3D3BA"/>
<rect x="200" y="30" width="10" height="10" fill="#E3D3BA"/>
<rect x="230" y="10" width="10" height="10" fill="#E3D3BA"/>
<rect x="240" y="10" width="10" height="10" fill="#B9A790"/>
<rect x="230" y="20" width="10" height="10" fill="#B9A790"/>
<rect x="220" y="20" width="10" height="10" fill="#B9A790"/>
<rect x="220" y="30" width="10" height="10" fill="#B9A790"/>
<rect x="210" y="40" width="10" height="10" fill="#B9A790"/>
<rect x="210" y="30" width="10" height="10" fill="#B9A790"/>
<rect x="200" y="40" width="10" height="10" fill="#B9A790"/>
<rect x="250" y="10" width="10" height="10" fill="#B9A790"/>
<rect x="260" y="10" width="10" height="10" fill="#B9A790"/>
<rect x="270" y="10" width="10" height="10" fill="#3A3329"/>
<rect x="260" y="20" width="10" height="10" fill="#3A3329"/>
<rect x="270" y="20" width="10" height="10" fill="#706051"/>
<rect x="250" y="20" width="10" height="10" fill="#706051"/>
<rect x="240" y="20" width="10" height="10" fill="#706051"/>
<rect x="230" y="30" width="10" height="10" fill="#706051"/>
<rect x="220" y="40" width="10" height="10" fill="#706051"/>
<rect x="210" y="50" width="10" height="10" fill="#706051"/>
<rect x="200" y="50" width="10" height="10" fill="#706051"/>
<rect x="280" y="10" width="10" height="10" fill="#24201B"/>
<rect x="200" y="20" width="10" height="10" fill="#24201B"/>
<rect x="190" y="30" width="10" height="10" fill="#24201B"/>
<rect x="170" y="40" width="10" height="10" fill="#4B4A4F"/>
<rect x="180" y="40" width="10" height="10" fill="#4B4A4F"/>
<rect x="180" y="30" width="10" height="10" fill="#4B4A4F"/>
<rect x="180" y="50" width="10" height="10" fill="#323134"/>
<rect x="190" y="40" width="10" height="10" fill="#323134"/>
<rect x="190" y="50" width="10" height="10" fill="#323134"/>
<rect x="190" y="60" width="10" height="10" fill="#323134"/>
<rect x="200" y="60" width="10" height="10" fill="#323134"/>
<rect x="210" y="60" width="10" height="10" fill="#323134"/>
<rect x="200" y="70" width="10" height="10" fill="#323134"/>
<rect x="160" y="210" width="10" height="10" transform="rotate(90 160 210)" fill="#24201B"/>
<rect x="140" y="210" width="10" height="10" transform="rotate(90 140 210)" fill="#24201B"/>
<rect y="80" width="10" height="10" fill="#24201B"/>
<rect x="130" y="210" width="10" height="10" transform="rotate(90 130 210)" fill="#24201B"/>
<rect x="220" y="90" width="10" height="10" fill="#24201B"/>
<rect x="220" y="210" width="10" height="10" transform="rotate(90 220 210)" fill="#24201B"/>
<rect x="110" y="210" width="10" height="10" transform="rotate(90 110 210)" fill="#24201B"/>
<rect y="90" width="10" height="10" fill="#24201B"/>
<rect x="10" y="40" width="10" height="10" fill="#24201B"/>
<rect x="10" y="30" width="10" height="10" fill="#24201B"/>
<rect x="10" y="50" width="10" height="10" fill="#24201B"/>
<rect x="10" y="60" width="10" height="10" fill="#24201B"/>
<rect x="40" y="40" width="10" height="10" fill="#24201B"/>
<rect x="40" y="30" width="10" height="10" fill="#24201B"/>
<rect x="40" y="50" width="10" height="10" fill="#24201B"/>
<rect x="50" y="50" width="10" height="10" fill="#24201B"/>
<rect x="20" y="50" width="10" height="10" fill="#97312F"/>
<rect x="10" y="70" width="10" height="10" fill="#97312F"/>
<rect x="30" y="50" width="10" height="10" fill="#97312F"/>
<rect x="60" y="50" width="10" height="10" fill="#97312F"/>
<rect x="70" y="40" width="10" height="10" fill="#97312F"/>
<rect x="80" y="30" width="10" height="10" fill="#97312F"/>
<rect x="50" y="60" width="10" height="10" fill="#97312F"/>
<rect x="40" y="60" width="10" height="10" fill="#97312F"/>
<rect x="20" y="60" width="10" height="10" fill="#8A2225"/>
<rect x="30" y="60" width="10" height="10" fill="#8A2225"/>
<rect x="60" y="40" width="10" height="10" fill="#24201B"/>
<rect x="70" y="30" width="10" height="10" fill="#24201B"/>
<rect x="80" y="20" width="10" height="10" fill="#24201B"/>
<rect x="90" y="20" width="10" height="10" fill="#24201B"/>
<rect x="100" y="20" width="10" height="10" fill="#24201B"/>
<rect x="110" y="20" width="10" height="10" fill="#24201B"/>
<rect x="120" y="20" width="10" height="10" fill="#24201B"/>
<rect x="130" y="20" width="10" height="10" fill="#24201B"/>
<rect x="140" y="20" width="10" height="10" fill="#24201B"/>
<rect x="150" y="20" width="10" height="10" fill="#24201B"/>
<rect x="160" y="30" width="10" height="10" fill="#24201B"/>
<rect x="80" y="40" width="10" height="10" fill="#F78F77"/>
<rect x="90" y="30" width="10" height="10" fill="#F78F77"/>
<rect x="100" y="30" width="10" height="10" fill="#24201B"/>
<rect x="20" y="30" width="10" height="10" transform="rotate(-90 20 30)" fill="#24201B"/>
<rect x="30" y="30" width="10" height="10" transform="rotate(-90 30 30)" fill="#24201B"/>
<rect x="220" y="100" width="10" height="10" fill="#24201B"/>
<rect x="210" y="210" width="10" height="10" transform="rotate(90 210 210)" fill="#24201B"/>
<rect y="110" width="10" height="10" fill="#24201B"/>
<rect x="220" y="120" width="10" height="10" fill="#24201B"/>
<rect x="100" y="210" width="10" height="10" transform="rotate(90 100 210)" fill="#24201B"/>
<rect x="190" y="210" width="10" height="10" transform="rotate(90 190 210)" fill="#24201B"/>
<rect y="160" width="10" height="10" fill="#24201B"/>
<rect x="220" y="170" width="10" height="10" fill="#24201B"/>
<rect x="60" y="210" width="10" height="10" transform="rotate(90 60 210)" fill="#24201B"/>
<rect y="120" width="10" height="10" fill="#24201B"/>
<rect x="220" y="130" width="10" height="10" fill="#24201B"/>
<rect x="180" y="210" width="10" height="10" transform="rotate(90 180 210)" fill="#24201B"/>
<rect y="130" width="10" height="10" fill="#24201B"/>
<rect x="220" y="140" width="10" height="10" fill="#24201B"/>
<rect x="90" y="210" width="10" height="10" transform="rotate(90 90 210)" fill="#24201B"/>
<rect y="150" width="10" height="10" fill="#24201B"/>
<rect x="120" y="210" width="10" height="10" transform="rotate(90 120 210)" fill="#24201B"/>
<rect x="220" y="160" width="10" height="10" fill="#24201B"/>
<rect x="70" y="210" width="10" height="10" transform="rotate(90 70 210)" fill="#24201B"/>
<rect y="140" width="10" height="10" fill="#24201B"/>
<rect x="220" y="150" width="10" height="10" fill="#24201B"/>
<rect x="80" y="210" width="10" height="10" transform="rotate(90 80 210)" fill="#24201B"/>
<rect y="100" width="10" height="10" fill="#24201B"/>
<rect x="220" y="110" width="10" height="10" fill="#24201B"/>
<rect x="200" y="210" width="10" height="10" transform="rotate(90 200 210)" fill="#24201B"/>
<rect y="170" width="10" height="10" fill="#24201B"/>
<rect x="220" y="180" width="10" height="10" fill="#24201B"/>
<rect x="50" y="210" width="10" height="10" transform="rotate(90 50 210)" fill="#24201B"/>
<rect y="180" width="10" height="10" fill="#24201B"/>
<rect x="220" y="190" width="10" height="10" fill="#24201B"/>
<rect x="40" y="210" width="10" height="10" transform="rotate(90 40 210)" fill="#24201B"/>
<rect y="190" width="10" height="10" fill="#24201B"/>
<rect x="10" y="200" width="10" height="10" fill="#24201B"/>
<rect x="10" y="190" width="10" height="10" fill="#9D3129"/>
<rect x="10" y="180" width="10" height="10" fill="#9D3129"/>
<rect x="20" y="170" width="10" height="10" fill="#9D3129"/>
<rect x="10" y="160" width="10" height="10" fill="#9D3129"/>
<rect x="10" y="170" width="10" height="10" fill="#D24748"/>
<rect x="20" y="180" width="10" height="10" fill="#D24748"/>
<rect x="30" y="190" width="10" height="10" fill="#D24748"/>
<rect x="50" y="190" width="10" height="10" fill="#D24748"/>
<rect x="70" y="190" width="10" height="10" fill="#D24748"/>
<rect x="60" y="190" width="10" height="10" fill="#D24748"/>
<rect x="80" y="190" width="10" height="10" fill="#D24748"/>
<rect x="90" y="190" width="10" height="10" fill="#D24748"/>
<rect x="110" y="190" width="10" height="10" fill="#D24748"/>
<rect x="130" y="190" width="10" height="10" fill="#D24748"/>
<rect x="150" y="190" width="10" height="10" fill="#D24748"/>
<rect x="170" y="190" width="10" height="10" fill="#D24748"/>
<rect x="190" y="190" width="10" height="10" fill="#9D3129"/>
<rect x="50" y="170" width="10" height="10" fill="#D24748"/>
<rect x="70" y="170" width="10" height="10" fill="#D24748"/>
<rect x="100" y="190" width="10" height="10" fill="#D24748"/>
<rect x="140" y="190" width="10" height="10" fill="#D24748"/>
<rect x="50" y="180" width="10" height="10" fill="#D24748"/>
<rect x="70" y="180" width="10" height="10" fill="#D24748"/>
<rect x="180" y="190" width="10" height="10" fill="#D24748"/>
<rect x="60" y="170" width="10" height="10" fill="#D24748"/>
<rect x="120" y="190" width="10" height="10" fill="#D24748"/>
<rect x="80" y="170" width="10" height="10" fill="#D24748"/>
<rect x="160" y="190" width="10" height="10" fill="#D24748"/>
<rect x="60" y="180" width="10" height="10" fill="#D24748"/>
<rect x="90" y="170" width="10" height="10" fill="#D24748"/>
<rect x="80" y="180" width="10" height="10" fill="#D24748"/>
<rect x="200" y="190" width="10" height="10" fill="#9D3129"/>
<rect x="210" y="190" width="10" height="10" fill="#692118"/>
<rect x="50" y="140" width="10" height="10" fill="#D24748"/>
<rect x="10" y="140" width="10" height="10" fill="#D24748"/>
<rect x="130" y="170" width="10" height="10" fill="#D24748"/>
<rect x="110" y="170" width="10" height="10" fill="#D24748"/>
<rect x="90" y="180" width="10" height="10" fill="#D24748"/>
<rect x="110" y="180" width="10" height="10" fill="#D24748"/>
<rect x="170" y="170" width="10" height="10" fill="#D24748"/>
<rect x="50" y="160" width="10" height="10" fill="#D24748"/>
<rect x="70" y="160" width="10" height="10" fill="#D24748"/>
<rect x="50" y="150" width="10" height="10" fill="#D24748"/>
<rect x="150" y="170" width="10" height="10" fill="#D24748"/>
<rect x="130" y="180" width="10" height="10" fill="#D24748"/>
<rect x="150" y="180" width="10" height="10" fill="#D24748"/>
<rect x="100" y="170" width="10" height="10" fill="#D24748"/>
<rect x="120" y="170" width="10" height="10" fill="#D24748"/>
<rect x="100" y="180" width="10" height="10" fill="#D24748"/>
<rect x="120" y="180" width="10" height="10" fill="#D24748"/>
<rect x="190" y="170" width="10" height="10" fill="#D24748"/>
<rect x="170" y="180" width="10" height="10" fill="#D24748"/>
<rect x="190" y="180" width="10" height="10" fill="#D24748"/>
<rect x="60" y="160" width="10" height="10" fill="#D24748"/>
<rect x="90" y="160" width="10" height="10" fill="#D24748"/>
<rect x="110" y="160" width="10" height="10" fill="#D24748"/>
<rect x="140" y="170" width="10" height="10" fill="#D24748"/>
<rect x="160" y="170" width="10" height="10" fill="#D24748"/>
<rect x="140" y="180" width="10" height="10" fill="#D24748"/>
<rect x="160" y="180" width="10" height="10" fill="#D24748"/>
<rect x="80" y="160" width="10" height="10" fill="#D24748"/>
<rect x="60" y="150" width="10" height="10" fill="#D24748"/>
<rect x="100" y="160" width="10" height="10" fill="#D24748"/>
<rect x="130" y="160" width="10" height="10" fill="#D24748"/>
<rect x="150" y="160" width="10" height="10" fill="#D24748"/>
<rect x="120" y="160" width="10" height="10" fill="#D24748"/>
<rect x="100" y="150" width="10" height="10" fill="#D24748"/>
<rect x="140" y="160" width="10" height="10" fill="#D24748"/>
<rect x="160" y="160" width="10" height="10" fill="#D24748"/>
<rect x="60" y="140" width="10" height="10" fill="#D24748"/>
<rect x="140" y="150" width="10" height="10" fill="#D24748"/>
<rect x="20" y="140" width="10" height="10" fill="#D24748"/>
<rect x="180" y="170" width="10" height="10" fill="#D24748"/>
<rect x="200" y="170" width="10" height="10" fill="#85160D"/>
<rect x="210" y="170" width="10" height="10" fill="#692118"/>
<rect x="80" y="140" width="10" height="10" fill="#D24748"/>
<rect x="180" y="180" width="10" height="10" fill="#D24748"/>
<rect x="200" y="180" width="10" height="10" fill="#85160D"/>
<rect x="210" y="180" width="10" height="10" fill="#692118"/>
<rect x="40" y="140" width="10" height="10" fill="#D24748"/>
<rect x="130" y="140" width="10" height="10" fill="#D24748"/>
<rect x="170" y="160" width="10" height="10" fill="#D24748"/>
<rect x="190" y="160" width="10" height="10" fill="#D24748"/>
<rect x="190" y="150" width="10" height="10" fill="#D24748"/>
<rect x="170" y="140" width="10" height="10" fill="#D24748"/>
<rect x="190" y="140" width="10" height="10" fill="#D24748"/>
<rect x="180" y="160" width="10" height="10" fill="#D24748"/>
<rect x="200" y="160" width="10" height="10" fill="#85160D"/>
<rect x="210" y="160" width="10" height="10" fill="#973631"/>
<rect x="180" y="150" width="10" height="10" fill="#D24748"/>
<rect x="50" y="130" width="10" height="10" fill="#D24748"/>
<rect x="200" y="150" width="10" height="10" fill="#85160D"/>
<rect x="60" y="120" width="10" height="10" fill="#D24748"/>
<rect x="210" y="150" width="10" height="10" fill="#973631"/>
<rect x="80" y="120" width="10" height="10" fill="#D24748"/>
<rect x="10" y="120" width="10" height="10" fill="#D24748"/>
<rect x="60" y="130" width="10" height="10" fill="#D24748"/>
<rect x="80" y="130" width="10" height="10" fill="#D24748"/>
<rect x="100" y="140" width="10" height="10" fill="#D24748"/>
<rect x="140" y="140" width="10" height="10" fill="#D24748"/>
<rect x="10" y="130" width="10" height="10" fill="#D24748"/>
<rect x="180" y="140" width="10" height="10" fill="#D24748"/>
<rect x="20" y="120" width="10" height="10" fill="#D24748"/>
<rect x="120" y="140" width="10" height="10" fill="#D24748"/>
<rect x="160" y="140" width="10" height="10" fill="#D24748"/>
<rect x="50" y="110" width="10" height="10" fill="#D24748"/>
<rect x="50" y="90" width="10" height="10" fill="#D24748"/>
<rect x="70" y="110" width="10" height="10" fill="#D24748"/>
<rect x="70" y="90" width="10" height="10" fill="#D24748"/>
<rect x="50" y="80" width="10" height="10" fill="#D24748"/>
<rect x="20" y="130" width="10" height="10" fill="#D24748"/>
<rect x="40" y="130" width="10" height="10" fill="#D24748"/>
<rect x="70" y="100" width="10" height="10" fill="#D24748"/>
<rect x="80" y="80" width="10" height="10" fill="#D24748"/>
<rect x="70" y="80" width="10" height="10" fill="#D24748"/>
<rect x="200" y="140" width="10" height="10" fill="#85160D"/>
<rect x="210" y="140" width="10" height="10" fill="#973631"/>
<rect x="40" y="180" width="10" height="10" fill="#D24748"/>
<rect x="130" y="120" width="10" height="10" fill="#D24748"/>
<rect x="30" y="170" width="10" height="10" fill="#D24748"/>
<rect x="60" y="110" width="10" height="10" fill="#D24748"/>
<rect x="60" y="90" width="10" height="10" fill="#D24748"/>
<rect x="170" y="120" width="10" height="10" fill="#D24748"/>
<rect x="10" y="110" width="10" height="10" fill="#D24748"/>
<rect x="10" y="90" width="10" height="10" fill="#D24748"/>
<rect x="30" y="90" width="10" height="10" fill="#D24748"/>
<rect x="10" y="100" width="10" height="10" fill="#D24748"/>
<rect x="10" y="80" width="10" height="10" fill="#D24748"/>
<rect x="130" y="130" width="10" height="10" fill="#D24748"/>
<rect x="80" y="110" width="10" height="10" fill="#D24748"/>
<rect x="80" y="90" width="10" height="10" fill="#D24748"/>
<rect x="60" y="80" width="10" height="10" fill="#D24748"/>
<rect x="80" y="100" width="10" height="10" fill="#D24748"/>
<rect x="90" y="80" width="10" height="10" fill="#D24748"/>
<rect x="30" y="80" width="10" height="10" fill="#D24748"/>
<rect x="100" y="120" width="10" height="10" fill="#D24748"/>
<rect x="120" y="120" width="10" height="10" fill="#D24748"/>
<rect x="100" y="130" width="10" height="10" fill="#D24748"/>
<rect x="190" y="120" width="10" height="10" fill="#D24748"/>
<rect x="170" y="130" width="10" height="10" fill="#D24748"/>
<rect x="190" y="130" width="10" height="10" fill="#D24748"/>
<rect x="20" y="110" width="10" height="10" fill="#D24748"/>
<rect x="20" y="90" width="10" height="10" fill="#D24748"/>
<rect x="90" y="90" width="10" height="10" fill="#D24748"/>
<rect x="110" y="90" width="10" height="10" fill="#D24748"/>
<rect x="90" y="100" width="10" height="10" fill="#D24748"/>
<rect x="110" y="100" width="10" height="10" fill="#D24748"/>
<rect x="140" y="120" width="10" height="10" fill="#D24748"/>
<rect x="160" y="120" width="10" height="10" fill="#D24748"/>
<rect x="140" y="130" width="10" height="10" fill="#D24748"/>
<rect x="160" y="130" width="10" height="10" fill="#D24748"/>
<rect x="40" y="110" width="10" height="10" fill="#D24748"/>
<rect x="40" y="90" width="10" height="10" fill="#D24748"/>
<rect x="20" y="100" width="10" height="10" fill="#D24748"/>
<rect x="20" y="80" width="10" height="10" fill="#D24748"/>
<rect x="40" y="80" width="10" height="10" fill="#D24748"/>
<rect x="50" y="70" width="10" height="10" fill="#D24748"/>
<rect x="70" y="70" width="10" height="10" fill="#D24748"/>
<rect x="60" y="70" width="10" height="10" fill="#D24748"/>
<rect x="60" y="60" width="10" height="10" fill="#D24748"/>
<rect x="70" y="50" width="10" height="10" fill="#D24748"/>
<rect x="30" y="70" width="10" height="10" fill="#D24748"/>
<rect x="20" y="70" width="10" height="10" fill="#D24748"/>
<rect x="40" y="70" width="10" height="10" fill="#D24748"/>
<rect x="100" y="110" width="10" height="10" fill="#D24748"/>
<rect x="100" y="90" width="10" height="10" fill="#D24748"/>
<rect x="130" y="90" width="10" height="10" fill="#D24748"/>
<rect x="150" y="90" width="10" height="10" fill="#D24748"/>
<rect x="130" y="100" width="10" height="10" fill="#D24748"/>
<rect x="150" y="100" width="10" height="10" fill="#D24748"/>
<rect x="150" y="80" width="10" height="10" fill="#D24748"/>
<rect x="120" y="90" width="10" height="10" fill="#D24748"/>
<rect x="100" y="100" width="10" height="10" fill="#D24748"/>
<rect x="120" y="100" width="10" height="10" fill="#D24748"/>
<rect x="140" y="110" width="10" height="10" fill="#D24748"/>
<rect x="140" y="90" width="10" height="10" fill="#D24748"/>
<rect x="160" y="110" width="10" height="10" fill="#D24748"/>
<rect x="160" y="90" width="10" height="10" fill="#D24748"/>
<rect x="140" y="100" width="10" height="10" fill="#D24748"/>
<rect x="140" y="80" width="10" height="10" fill="#D24748"/>
<rect x="160" y="100" width="10" height="10" fill="#D24748"/>
<rect x="160" y="80" width="10" height="10" fill="#D24748"/>
<rect x="40" y="170" width="10" height="10" fill="#D24748"/>
<rect x="180" y="120" width="10" height="10" fill="#D24748"/>
<rect x="200" y="120" width="10" height="10" fill="#85160D"/>
<rect x="210" y="120" width="10" height="10" fill="#973631"/>
<rect x="180" y="130" width="10" height="10" fill="#D24748"/>
<rect x="200" y="130" width="10" height="10" fill="#85160D"/>
<rect x="210" y="130" width="10" height="10" fill="#973631"/>
<rect x="20" y="160" width="10" height="10" fill="#D24748"/>
<rect x="10" y="150" width="10" height="10" fill="#D24748"/>
<rect x="30" y="160" width="10" height="10" fill="#D24748"/>
<rect x="70" y="140" width="10" height="10" fill="#97312F"/>
<rect x="30" y="140" width="10" height="10" fill="#97312F"/>
<rect x="70" y="150" width="10" height="10" fill="#97312F"/>
<rect x="90" y="150" width="10" height="10" fill="#97312F"/>
<rect x="110" y="150" width="10" height="10" fill="#97312F"/>
<rect x="80" y="150" width="10" height="10" fill="#97312F"/>
<rect x="130" y="150" width="10" height="10" fill="#97312F"/>
<rect x="150" y="150" width="10" height="10" fill="#97312F"/>
<rect x="120" y="150" width="10" height="10" fill="#97312F"/>
<rect x="160" y="150" width="10" height="10" fill="#97312F"/>
<rect x="90" y="140" width="10" height="10" fill="#97312F"/>
<rect x="110" y="140" width="10" height="10" fill="#97312F"/>
<rect x="170" y="150" width="10" height="10" fill="#97312F"/>
<rect x="150" y="140" width="10" height="10" fill="#97312F"/>
<rect x="50" y="120" width="10" height="10" fill="#97312F"/>
<rect x="70" y="120" width="10" height="10" fill="#97312F"/>
<rect x="70" y="130" width="10" height="10" fill="#97312F"/>
<rect x="30" y="120" width="10" height="10" fill="#97312F"/>
<rect x="30" y="130" width="10" height="10" fill="#97312F"/>
<rect x="40" y="120" width="10" height="10" fill="#97312F"/>
<rect x="50" y="100" width="10" height="10" fill="#97312F"/>
<rect x="90" y="120" width="10" height="10" fill="#97312F"/>
<rect x="110" y="120" width="10" height="10" fill="#97312F"/>
<rect x="90" y="130" width="10" height="10" fill="#97312F"/>
<rect x="110" y="130" width="10" height="10" fill="#97312F"/>
<rect x="30" y="110" width="10" height="10" fill="#97312F"/>
<rect x="150" y="120" width="10" height="10" fill="#97312F"/>
<rect x="150" y="130" width="10" height="10" fill="#97312F"/>
<rect x="60" y="100" width="10" height="10" fill="#97312F"/>
<rect x="30" y="100" width="10" height="10" fill="#97312F"/>
<rect x="120" y="130" width="10" height="10" fill="#97312F"/>
<rect x="90" y="110" width="10" height="10" fill="#97312F"/>
<rect x="110" y="110" width="10" height="10" fill="#97312F"/>
<rect x="40" y="100" width="10" height="10" fill="#97312F"/>
<rect x="130" y="110" width="10" height="10" fill="#97312F"/>
<rect x="150" y="110" width="10" height="10" fill="#97312F"/>
<rect x="120" y="110" width="10" height="10" fill="#97312F"/>
<rect x="30" y="150" width="10" height="10" fill="#97312F"/>
<rect x="170" y="110" width="10" height="10" fill="#D24748"/>
<rect x="170" y="90" width="10" height="10" fill="#D24748"/>
<rect x="190" y="110" width="10" height="10" fill="#D24748"/>
<rect x="190" y="90" width="10" height="10" fill="#F78F77"/>
<rect x="170" y="100" width="10" height="10" fill="#D24748"/>
<rect x="170" y="80" width="10" height="10" fill="#D24748"/>
<rect x="160" y="70" width="10" height="10" fill="#D24748"/>
<rect x="170" y="70" width="10" height="10" fill="#D24748"/>
<rect x="190" y="100" width="10" height="10" fill="#F78F77"/>
<rect x="190" y="80" width="10" height="10" fill="#F78F77"/>
<rect x="180" y="70" width="10" height="10" fill="#F78F77"/>
<rect x="170" y="60" width="10" height="10" fill="#F78F77"/>
<rect x="160" y="50" width="10" height="10" fill="#F78F77"/>
<rect x="150" y="40" width="10" height="10" fill="#F78F77"/>
<rect x="140" y="40" width="10" height="10" fill="#97312F"/>
<rect x="140" y="30" width="10" height="10" fill="#F78F77"/>
<rect x="130" y="30" width="10" height="10" fill="#F78F77"/>
<rect x="120" y="30" width="10" height="10" fill="#F78F77"/>
<rect x="110" y="30" width="10" height="10" fill="#F78F77"/>
<rect x="100" y="30" width="10" height="10" fill="#F78F77"/>
<rect x="20" y="30" width="10" height="10" fill="#24201B"/>
<rect x="30" y="30" width="10" height="10" fill="#F78F77"/>
<rect x="20" y="30" width="10" height="10" fill="#F78F77"/>
<rect x="20" y="40" width="10" height="10" fill="#24201B"/>
<rect x="30" y="40" width="10" height="10" fill="#B94C4A"/>
<rect x="20" y="40" width="10" height="10" fill="#B94C4A"/>
<rect x="20" y="40" width="10" height="10" fill="#24201B"/>
<rect x="30" y="40" width="10" height="10" fill="#B94C4A"/>
<rect x="20" y="40" width="10" height="10" fill="#B94C4A"/>
<rect x="40" y="160" width="10" height="10" fill="#D24748"/>
<rect x="40" y="150" width="10" height="10" fill="#D24748"/>
<rect x="20" y="150" width="10" height="10" fill="#D24748"/>
<rect x="180" y="110" width="10" height="10" fill="#D24748"/>
<rect x="180" y="90" width="10" height="10" fill="#D24748"/>
<rect x="200" y="110" width="10" height="10" fill="#85160D"/>
<rect x="200" y="90" width="10" height="10" fill="#85160D"/>
<rect x="190" y="70" width="10" height="10" fill="#85160D"/>
<rect x="180" y="60" width="10" height="10" fill="#85160D"/>
<rect x="170" y="50" width="10" height="10" fill="#85160D"/>
<rect x="160" y="40" width="10" height="10" fill="#85160D"/>
<rect x="150" y="30" width="10" height="10" fill="#85160D"/>
<rect x="100" y="40" width="10" height="10" fill="#85160D"/>
<rect x="90" y="40" width="10" height="10" fill="#97312F"/>
<rect x="110" y="40" width="10" height="10" fill="#85160D"/>
<rect x="120" y="40" width="10" height="10" fill="#85160D"/>
<rect x="120" y="40" width="10" height="10" fill="#85160D"/>
<rect x="130" y="40" width="10" height="10" fill="#85160D"/>
<rect x="140" y="50" width="10" height="10" fill="#85160D"/>
<rect x="150" y="50" width="10" height="10" fill="#85160D"/>
<rect x="150" y="70" width="10" height="10" fill="#85160D"/>
<rect x="160" y="60" width="10" height="10" fill="#85160D"/>
<rect x="150" y="60" width="10" height="10" fill="#85160D"/>
<rect x="140" y="70" width="10" height="10" fill="#85160D"/>
<rect x="130" y="80" width="10" height="10" fill="#85160D"/>
<rect x="140" y="80" width="10" height="10" fill="#85160D"/>
<rect x="120" y="80" width="10" height="10" fill="#85160D"/>
<rect x="110" y="80" width="10" height="10" fill="#85160D"/>
<rect x="100" y="80" width="10" height="10" fill="#85160D"/>
<rect x="90" y="80" width="10" height="10" fill="#85160D"/>
<rect x="90" y="70" width="10" height="10" fill="#85160D"/>
<rect x="80" y="60" width="10" height="10" fill="#85160D"/>
<rect x="90" y="50" width="10" height="10" fill="#85160D"/>
<rect x="80" y="50" width="10" height="10" fill="#85160D"/>
<rect x="80" y="70" width="10" height="10" fill="#85160D"/>
<rect x="70" y="60" width="10" height="10" fill="#85160D"/>
<rect x="210" y="110" width="10" height="10" fill="#973631"/>
<rect x="210" y="90" width="10" height="10" fill="#692118"/>
<rect x="180" y="100" width="10" height="10" fill="#D24748"/>
<rect x="180" y="80" width="10" height="10" fill="#D24748"/>
<rect x="200" y="100" width="10" height="10" fill="#85160D"/>
<rect x="200" y="80" width="10" height="10" fill="#692118"/>
<rect x="210" y="100" width="10" height="10" fill="#973631"/>
<rect x="210" y="80" width="10" height="10" fill="#692118"/>
<rect x="20" y="190" width="10" height="10" fill="#9D3129"/>
<rect x="30" y="180" width="10" height="10" fill="#9D3129"/>
<rect x="40" y="190" width="10" height="10" fill="#9D3129"/>
<rect x="20" y="200" width="10" height="10" fill="#9D3129"/>
<rect x="30" y="200" width="10" height="10" fill="#9D3129"/>
<rect x="40" y="200" width="10" height="10" fill="#9D3129"/>
<rect x="50" y="200" width="10" height="10" fill="#9D3129"/>
<rect x="60" y="200" width="10" height="10" fill="#9D3129"/>
<rect x="70" y="200" width="10" height="10" fill="#9D3129"/>
<rect x="80" y="200" width="10" height="10" fill="#9D3129"/>
<rect x="90" y="200" width="10" height="10" fill="#9D3129"/>
<rect x="100" y="200" width="10" height="10" fill="#9D3129"/>
<rect x="110" y="200" width="10" height="10" fill="#9D3129"/>
<rect x="120" y="200" width="10" height="10" fill="#9D3129"/>
<rect x="130" y="200" width="10" height="10" fill="#9D3129"/>
<rect x="140" y="200" width="10" height="10" fill="#9D3129"/>
<rect x="180" y="200" width="10" height="10" fill="#9D3129"/>
<rect x="150" y="200" width="10" height="10" fill="#9D3129"/>
<rect x="190" y="200" width="10" height="10" fill="#692118"/>
<rect x="160" y="200" width="10" height="10" fill="#9D3129"/>
<rect x="200" y="200" width="10" height="10" fill="#692118"/>
<rect x="170" y="200" width="10" height="10" fill="#9D3129"/>
<rect x="210" y="200" width="10" height="10" fill="#692118"/>
<rect x="220" y="200" width="10" height="10" fill="#24201B"/>
<rect x="30" y="210" width="10" height="10" transform="rotate(90 30 210)" fill="#24201B"/>
<rect x="140" y="50" width="10" height="10" transform="rotate(90 140 50)" fill="#24201B"/>
<rect x="150" y="60" width="10" height="10" transform="rotate(90 150 60)" fill="#24201B"/>
<rect x="130" y="50" width="10" height="10" transform="rotate(90 130 50)" fill="#24201B"/>
<rect x="120" y="50" width="10" height="10" transform="rotate(90 120 50)" fill="#24201B"/>
<rect x="110" y="50" width="10" height="10" transform="rotate(90 110 50)" fill="#24201B"/>
<rect x="100" y="60" width="10" height="10" transform="rotate(90 100 60)" fill="#24201B"/>
<rect x="140" y="70" width="10" height="10" transform="rotate(90 140 70)" fill="#24201B"/>
<rect x="130" y="70" width="10" height="10" transform="rotate(90 130 70)" fill="#24201B"/>
<rect x="120" y="70" width="10" height="10" transform="rotate(90 120 70)" fill="#24201B"/>
<rect x="110" y="70" width="10" height="10" transform="rotate(90 110 70)" fill="#24201B"/>
</svg>
