<svg width="422" height="320" viewBox="0 0 422 320" fill="none" xmlns="http://www.w3.org/2000/svg">
<rect x="247.273" y="305.455" width="14.5455" height="14.5455" transform="rotate(90 247.273 305.455)" fill="#24201B"/>
<rect y="101.818" width="14.5455" height="14.5455" fill="#24201B"/>
<rect x="218.182" y="305.455" width="14.5455" height="14.5455" transform="rotate(90 218.182 305.455)" fill="#24201B"/>
<rect x="320" y="116.363" width="14.5455" height="14.5455" fill="#24201B"/>
<rect x="305.455" y="101.818" width="14.5455" height="14.5455" fill="#24201B"/>
<rect x="320" y="87.2725" width="14.5455" height="14.5455" fill="#24201B"/>
<rect x="320" y="72.7275" width="14.5455" height="14.5455" fill="#24201B"/>
<rect x="334.546" y="58.1821" width="14.5455" height="14.5455" fill="#24201B"/>
<rect x="349.091" y="43.6367" width="14.5455" height="14.5455" fill="#24201B"/>
<rect x="363.636" y="43.6367" width="14.5455" height="14.5455" fill="#24201B"/>
<rect x="378.182" y="43.6367" width="14.5455" height="14.5455" fill="#24201B"/>
<rect x="392.727" y="43.6367" width="14.5455" height="14.5455" fill="#24201B"/>
<rect x="407.273" y="29.0908" width="14.5455" height="14.5455" fill="#24201B"/>
<rect x="407.273" y="14.5454" width="14.5455" height="14.5455" fill="#24201B"/>
<rect x="392.727" width="14.5455" height="14.5455" fill="#24201B"/>
<rect x="378.182" width="14.5455" height="14.5455" fill="#24201B"/>
<rect x="363.636" width="14.5455" height="14.5455" fill="#24201B"/>
<rect x="349.091" width="14.5455" height="14.5455" fill="#24201B"/>
<rect x="334.546" width="14.5455" height="14.5455" fill="#24201B"/>
<rect x="320" width="14.5455" height="14.5455" fill="#24201B"/>
<rect x="305.455" y="14.5454" width="14.5455" height="14.5455" fill="#24201B"/>
<rect x="320" y="14.5454" width="14.5455" height="14.5455" fill="#E3D3BA"/>
<rect x="305.455" y="29.0908" width="14.5455" height="14.5455" fill="#E3D3BA"/>
<rect x="290.909" y="43.6367" width="14.5455" height="14.5455" fill="#E3D3BA"/>
<rect x="334.546" y="14.5454" width="14.5455" height="14.5455" fill="#E3D3BA"/>
<rect x="349.091" y="14.5454" width="14.5455" height="14.5455" fill="#B9A790"/>
<rect x="334.546" y="29.0908" width="14.5455" height="14.5455" fill="#B9A790"/>
<rect x="320" y="29.0908" width="14.5455" height="14.5455" fill="#B9A790"/>
<rect x="320" y="43.6367" width="14.5455" height="14.5455" fill="#B9A790"/>
<rect x="305.455" y="58.1821" width="14.5455" height="14.5455" fill="#B9A790"/>
<rect x="305.455" y="43.6367" width="14.5455" height="14.5455" fill="#B9A790"/>
<rect x="290.909" y="58.1821" width="14.5455" height="14.5455" fill="#B9A790"/>
<rect x="363.636" y="14.5454" width="14.5455" height="14.5455" fill="#B9A790"/>
<rect x="378.182" y="14.5454" width="14.5455" height="14.5455" fill="#B9A790"/>
<rect x="392.727" y="14.5454" width="14.5455" height="14.5455" fill="#3A3329"/>
<rect x="378.182" y="29.0908" width="14.5455" height="14.5455" fill="#3A3329"/>
<rect x="392.727" y="29.0908" width="14.5455" height="14.5455" fill="#706051"/>
<rect x="363.636" y="29.0908" width="14.5455" height="14.5455" fill="#706051"/>
<rect x="349.091" y="29.0908" width="14.5455" height="14.5455" fill="#706051"/>
<rect x="334.546" y="43.6367" width="14.5455" height="14.5455" fill="#706051"/>
<rect x="320" y="58.1821" width="14.5455" height="14.5455" fill="#706051"/>
<rect x="305.455" y="72.7275" width="14.5455" height="14.5455" fill="#706051"/>
<rect x="290.909" y="72.7275" width="14.5455" height="14.5455" fill="#706051"/>
<rect x="407.273" y="14.5454" width="14.5455" height="14.5455" fill="#24201B"/>
<rect x="290.909" y="29.0908" width="14.5455" height="14.5455" fill="#24201B"/>
<rect x="276.364" y="43.6367" width="14.5455" height="14.5455" fill="#24201B"/>
<rect x="247.273" y="58.1821" width="14.5455" height="14.5455" fill="#4B4A4F"/>
<rect x="261.818" y="58.1821" width="14.5455" height="14.5455" fill="#4B4A4F"/>
<rect x="261.818" y="43.6367" width="14.5455" height="14.5455" fill="#4B4A4F"/>
<rect x="261.818" y="72.7275" width="14.5455" height="14.5455" fill="#323134"/>
<rect x="276.364" y="58.1821" width="14.5455" height="14.5455" fill="#323134"/>
<rect x="276.364" y="72.7275" width="14.5455" height="14.5455" fill="#323134"/>
<rect x="276.364" y="87.2725" width="14.5455" height="14.5455" fill="#323134"/>
<rect x="290.909" y="87.2725" width="14.5455" height="14.5455" fill="#323134"/>
<rect x="305.455" y="87.2725" width="14.5455" height="14.5455" fill="#323134"/>
<rect x="290.909" y="101.818" width="14.5455" height="14.5455" fill="#323134"/>
<rect x="232.727" y="305.455" width="14.5455" height="14.5455" transform="rotate(90 232.727 305.455)" fill="#24201B"/>
<rect x="203.636" y="305.455" width="14.5455" height="14.5455" transform="rotate(90 203.636 305.455)" fill="#24201B"/>
<rect y="116.363" width="14.5455" height="14.5455" fill="#24201B"/>
<rect x="189.091" y="305.455" width="14.5455" height="14.5455" transform="rotate(90 189.091 305.455)" fill="#24201B"/>
<rect x="320" y="130.909" width="14.5455" height="14.5455" fill="#24201B"/>
<rect x="320" y="305.455" width="14.5455" height="14.5455" transform="rotate(90 320 305.455)" fill="#24201B"/>
<rect x="160" y="305.455" width="14.5455" height="14.5455" transform="rotate(90 160 305.455)" fill="#24201B"/>
<rect y="130.909" width="14.5455" height="14.5455" fill="#24201B"/>
<rect x="14.5455" y="58.1821" width="14.5455" height="14.5455" fill="#24201B"/>
<rect x="14.5455" y="43.6367" width="14.5455" height="14.5455" fill="#24201B"/>
<rect x="14.5455" y="72.7275" width="14.5455" height="14.5455" fill="#24201B"/>
<rect x="14.5455" y="87.2725" width="14.5455" height="14.5455" fill="#24201B"/>
<rect x="58.1819" y="58.1821" width="14.5455" height="14.5455" fill="#24201B"/>
<rect x="58.1819" y="43.6367" width="14.5455" height="14.5455" fill="#24201B"/>
<rect x="58.1819" y="72.7275" width="14.5455" height="14.5455" fill="#24201B"/>
<rect x="72.7273" y="72.7275" width="14.5455" height="14.5455" fill="#24201B"/>
<rect x="29.0908" y="72.7275" width="14.5455" height="14.5455" fill="#97312F"/>
<rect x="14.5455" y="101.818" width="14.5455" height="14.5455" fill="#97312F"/>
<rect x="43.6364" y="72.7275" width="14.5455" height="14.5455" fill="#97312F"/>
<rect x="87.2727" y="72.7275" width="14.5455" height="14.5455" fill="#97312F"/>
<rect x="101.818" y="58.1821" width="14.5455" height="14.5455" fill="#97312F"/>
<rect x="116.364" y="43.6367" width="14.5455" height="14.5455" fill="#97312F"/>
<rect x="72.7273" y="87.2725" width="14.5455" height="14.5455" fill="#97312F"/>
<rect x="58.1819" y="87.2725" width="14.5455" height="14.5455" fill="#97312F"/>
<rect x="29.0908" y="87.2725" width="14.5455" height="14.5455" fill="#8A2225"/>
<rect x="43.6364" y="87.2725" width="14.5455" height="14.5455" fill="#8A2225"/>
<rect x="87.2727" y="58.1821" width="14.5455" height="14.5455" fill="#24201B"/>
<rect x="101.818" y="43.6367" width="14.5455" height="14.5455" fill="#24201B"/>
<rect x="116.364" y="29.0908" width="14.5455" height="14.5455" fill="#24201B"/>
<rect x="130.909" y="29.0908" width="14.5455" height="14.5455" fill="#24201B"/>
<rect x="145.454" y="29.0908" width="14.5455" height="14.5455" fill="#24201B"/>
<rect x="160" y="29.0908" width="14.5455" height="14.5455" fill="#24201B"/>
<rect x="174.546" y="29.0908" width="14.5455" height="14.5455" fill="#24201B"/>
<rect x="189.091" y="29.0908" width="14.5455" height="14.5455" fill="#24201B"/>
<rect x="203.636" y="29.0908" width="14.5455" height="14.5455" fill="#24201B"/>
<rect x="218.182" y="29.0908" width="14.5455" height="14.5455" fill="#24201B"/>
<rect x="232.727" y="43.6367" width="14.5455" height="14.5455" fill="#24201B"/>
<rect x="116.364" y="58.1821" width="14.5455" height="14.5455" fill="#F78F77"/>
<rect x="130.909" y="43.6367" width="14.5455" height="14.5455" fill="#F78F77"/>
<rect x="145.454" y="43.6367" width="14.5455" height="14.5455" fill="#24201B"/>
<rect x="29.0908" y="43.6367" width="14.5455" height="14.5455" transform="rotate(-90 29.0908 43.6367)" fill="#24201B"/>
<rect x="43.6364" y="43.6367" width="14.5455" height="14.5455" transform="rotate(-90 43.6364 43.6367)" fill="#24201B"/>
<rect x="320" y="145.455" width="14.5455" height="14.5455" fill="#24201B"/>
<rect x="305.455" y="305.455" width="14.5455" height="14.5455" transform="rotate(90 305.455 305.455)" fill="#24201B"/>
<rect y="160" width="14.5455" height="14.5455" fill="#24201B"/>
<rect x="320" y="174.545" width="14.5455" height="14.5455" fill="#24201B"/>
<rect x="145.454" y="305.455" width="14.5455" height="14.5455" transform="rotate(90 145.454 305.455)" fill="#24201B"/>
<rect x="276.364" y="305.455" width="14.5455" height="14.5455" transform="rotate(90 276.364 305.455)" fill="#24201B"/>
<rect y="232.728" width="14.5455" height="14.5455" fill="#24201B"/>
<rect x="320" y="247.272" width="14.5455" height="14.5455" fill="#24201B"/>
<rect x="87.2727" y="305.455" width="14.5455" height="14.5455" transform="rotate(90 87.2727 305.455)" fill="#24201B"/>
<rect y="174.545" width="14.5455" height="14.5455" fill="#24201B"/>
<rect x="320" y="189.091" width="14.5455" height="14.5455" fill="#24201B"/>
<rect x="261.818" y="305.455" width="14.5455" height="14.5455" transform="rotate(90 261.818 305.455)" fill="#24201B"/>
<rect y="189.091" width="14.5455" height="14.5455" fill="#24201B"/>
<rect x="320" y="203.637" width="14.5455" height="14.5455" fill="#24201B"/>
<rect x="130.909" y="305.455" width="14.5455" height="14.5455" transform="rotate(90 130.909 305.455)" fill="#24201B"/>
<rect y="218.182" width="14.5455" height="14.5455" fill="#24201B"/>
<rect x="174.546" y="305.455" width="14.5455" height="14.5455" transform="rotate(90 174.546 305.455)" fill="#24201B"/>
<rect x="320" y="232.728" width="14.5455" height="14.5455" fill="#24201B"/>
<rect x="101.818" y="305.455" width="14.5455" height="14.5455" transform="rotate(90 101.818 305.455)" fill="#24201B"/>
<rect y="203.637" width="14.5455" height="14.5455" fill="#24201B"/>
<rect x="320" y="218.182" width="14.5455" height="14.5455" fill="#24201B"/>
<rect x="116.364" y="305.455" width="14.5455" height="14.5455" transform="rotate(90 116.364 305.455)" fill="#24201B"/>
<rect y="145.455" width="14.5455" height="14.5455" fill="#24201B"/>
<rect x="320" y="160" width="14.5455" height="14.5455" fill="#24201B"/>
<rect x="290.909" y="305.455" width="14.5455" height="14.5455" transform="rotate(90 290.909 305.455)" fill="#24201B"/>
<rect y="247.272" width="14.5455" height="14.5455" fill="#24201B"/>
<rect x="320" y="261.818" width="14.5455" height="14.5455" fill="#24201B"/>
<rect x="72.7273" y="305.455" width="14.5455" height="14.5455" transform="rotate(90 72.7273 305.455)" fill="#24201B"/>
<rect y="261.818" width="14.5455" height="14.5455" fill="#24201B"/>
<rect x="320" y="276.363" width="14.5455" height="14.5455" fill="#24201B"/>
<rect x="58.1819" y="305.455" width="14.5455" height="14.5455" transform="rotate(90 58.1819 305.455)" fill="#24201B"/>
<rect y="276.363" width="14.5455" height="14.5455" fill="#24201B"/>
<rect x="14.5455" y="290.909" width="14.5455" height="14.5455" fill="#24201B"/>
<rect x="14.5455" y="276.363" width="14.5455" height="14.5455" fill="#9D3129"/>
<rect x="14.5455" y="261.818" width="14.5455" height="14.5455" fill="#9D3129"/>
<rect x="29.0908" y="247.272" width="14.5455" height="14.5455" fill="#9D3129"/>
<rect x="14.5455" y="232.728" width="14.5455" height="14.5455" fill="#9D3129"/>
<rect x="14.5455" y="247.272" width="14.5455" height="14.5455" fill="#D24748"/>
<rect x="29.0908" y="261.818" width="14.5455" height="14.5455" fill="#D24748"/>
<rect x="43.6364" y="276.363" width="14.5455" height="14.5455" fill="#D24748"/>
<rect x="72.7273" y="276.363" width="14.5455" height="14.5455" fill="#D24748"/>
<rect x="101.818" y="276.363" width="14.5455" height="14.5455" fill="#D24748"/>
<rect x="87.2727" y="276.363" width="14.5455" height="14.5455" fill="#D24748"/>
<rect x="116.364" y="276.363" width="14.5455" height="14.5455" fill="#D24748"/>
<rect x="130.909" y="276.363" width="14.5455" height="14.5455" fill="#D24748"/>
<rect x="160" y="276.363" width="14.5455" height="14.5455" fill="#D24748"/>
<rect x="189.091" y="276.363" width="14.5455" height="14.5455" fill="#D24748"/>
<rect x="218.182" y="276.363" width="14.5455" height="14.5455" fill="#D24748"/>
<rect x="247.273" y="276.363" width="14.5455" height="14.5455" fill="#D24748"/>
<rect x="276.364" y="276.363" width="14.5455" height="14.5455" fill="#9D3129"/>
<rect x="72.7273" y="247.272" width="14.5455" height="14.5455" fill="#D24748"/>
<rect x="101.818" y="247.272" width="14.5455" height="14.5455" fill="#D24748"/>
<rect x="145.454" y="276.363" width="14.5455" height="14.5455" fill="#D24748"/>
<rect x="203.636" y="276.363" width="14.5455" height="14.5455" fill="#D24748"/>
<rect x="72.7273" y="261.818" width="14.5455" height="14.5455" fill="#D24748"/>
<rect x="101.818" y="261.818" width="14.5455" height="14.5455" fill="#D24748"/>
<rect x="261.818" y="276.363" width="14.5455" height="14.5455" fill="#D24748"/>
<rect x="87.2727" y="247.272" width="14.5455" height="14.5455" fill="#D24748"/>
<rect x="174.546" y="276.363" width="14.5455" height="14.5455" fill="#D24748"/>
<rect x="116.364" y="247.272" width="14.5455" height="14.5455" fill="#D24748"/>
<rect x="232.727" y="276.363" width="14.5455" height="14.5455" fill="#D24748"/>
<rect x="87.2727" y="261.818" width="14.5455" height="14.5455" fill="#D24748"/>
<rect x="130.909" y="247.272" width="14.5455" height="14.5455" fill="#D24748"/>
<rect x="116.364" y="261.818" width="14.5455" height="14.5455" fill="#D24748"/>
<rect x="290.909" y="276.363" width="14.5455" height="14.5455" fill="#9D3129"/>
<rect x="305.455" y="276.363" width="14.5455" height="14.5455" fill="#692118"/>
<rect x="72.7273" y="203.637" width="14.5455" height="14.5455" fill="#D24748"/>
<rect x="14.5455" y="203.637" width="14.5455" height="14.5455" fill="#D24748"/>
<rect x="189.091" y="247.272" width="14.5455" height="14.5455" fill="#D24748"/>
<rect x="160" y="247.272" width="14.5455" height="14.5455" fill="#D24748"/>
<rect x="130.909" y="261.818" width="14.5455" height="14.5455" fill="#D24748"/>
<rect x="160" y="261.818" width="14.5455" height="14.5455" fill="#D24748"/>
<rect x="247.273" y="247.272" width="14.5455" height="14.5455" fill="#D24748"/>
<rect x="72.7273" y="232.728" width="14.5455" height="14.5455" fill="#D24748"/>
<rect x="101.818" y="232.728" width="14.5455" height="14.5455" fill="#D24748"/>
<rect x="72.7273" y="218.182" width="14.5455" height="14.5455" fill="#D24748"/>
<rect x="218.182" y="247.272" width="14.5455" height="14.5455" fill="#D24748"/>
<rect x="189.091" y="261.818" width="14.5455" height="14.5455" fill="#D24748"/>
<rect x="218.182" y="261.818" width="14.5455" height="14.5455" fill="#D24748"/>
<rect x="145.454" y="247.272" width="14.5455" height="14.5455" fill="#D24748"/>
<rect x="174.546" y="247.272" width="14.5455" height="14.5455" fill="#D24748"/>
<rect x="145.454" y="261.818" width="14.5455" height="14.5455" fill="#D24748"/>
<rect x="174.546" y="261.818" width="14.5455" height="14.5455" fill="#D24748"/>
<rect x="276.364" y="247.272" width="14.5455" height="14.5455" fill="#D24748"/>
<rect x="247.273" y="261.818" width="14.5455" height="14.5455" fill="#D24748"/>
<rect x="276.364" y="261.818" width="14.5455" height="14.5455" fill="#D24748"/>
<rect x="87.2727" y="232.728" width="14.5455" height="14.5455" fill="#D24748"/>
<rect x="130.909" y="232.728" width="14.5455" height="14.5455" fill="#D24748"/>
<rect x="160" y="232.728" width="14.5455" height="14.5455" fill="#D24748"/>
<rect x="203.636" y="247.272" width="14.5455" height="14.5455" fill="#D24748"/>
<rect x="232.727" y="247.272" width="14.5455" height="14.5455" fill="#D24748"/>
<rect x="203.636" y="261.818" width="14.5455" height="14.5455" fill="#D24748"/>
<rect x="232.727" y="261.818" width="14.5455" height="14.5455" fill="#D24748"/>
<rect x="116.364" y="232.728" width="14.5455" height="14.5455" fill="#D24748"/>
<rect x="87.2727" y="218.182" width="14.5455" height="14.5455" fill="#D24748"/>
<rect x="145.454" y="232.728" width="14.5455" height="14.5455" fill="#D24748"/>
<rect x="189.091" y="232.728" width="14.5455" height="14.5455" fill="#D24748"/>
<rect x="218.182" y="232.728" width="14.5455" height="14.5455" fill="#D24748"/>
<rect x="174.546" y="232.728" width="14.5455" height="14.5455" fill="#D24748"/>
<rect x="145.454" y="218.182" width="14.5455" height="14.5455" fill="#D24748"/>
<rect x="203.636" y="232.728" width="14.5455" height="14.5455" fill="#D24748"/>
<rect x="232.727" y="232.728" width="14.5455" height="14.5455" fill="#D24748"/>
<rect x="87.2727" y="203.637" width="14.5455" height="14.5455" fill="#D24748"/>
<rect x="203.636" y="218.182" width="14.5455" height="14.5455" fill="#D24748"/>
<rect x="29.0908" y="203.637" width="14.5455" height="14.5455" fill="#D24748"/>
<rect x="261.818" y="247.272" width="14.5455" height="14.5455" fill="#D24748"/>
<rect x="290.909" y="247.272" width="14.5455" height="14.5455" fill="#85160D"/>
<rect x="305.455" y="247.272" width="14.5455" height="14.5455" fill="#692118"/>
<rect x="116.364" y="203.637" width="14.5455" height="14.5455" fill="#D24748"/>
<rect x="261.818" y="261.818" width="14.5455" height="14.5455" fill="#D24748"/>
<rect x="290.909" y="261.818" width="14.5455" height="14.5455" fill="#85160D"/>
<rect x="305.455" y="261.818" width="14.5455" height="14.5455" fill="#692118"/>
<rect x="58.1819" y="203.637" width="14.5455" height="14.5455" fill="#D24748"/>
<rect x="189.091" y="203.637" width="14.5455" height="14.5455" fill="#D24748"/>
<rect x="247.273" y="232.728" width="14.5455" height="14.5455" fill="#D24748"/>
<rect x="276.364" y="232.728" width="14.5455" height="14.5455" fill="#D24748"/>
<rect x="276.364" y="218.182" width="14.5455" height="14.5455" fill="#D24748"/>
<rect x="247.273" y="203.637" width="14.5455" height="14.5455" fill="#D24748"/>
<rect x="276.364" y="203.637" width="14.5455" height="14.5455" fill="#D24748"/>
<rect x="261.818" y="232.728" width="14.5455" height="14.5455" fill="#D24748"/>
<rect x="290.909" y="232.728" width="14.5455" height="14.5455" fill="#85160D"/>
<rect x="305.455" y="232.728" width="14.5455" height="14.5455" fill="#973631"/>
<rect x="261.818" y="218.182" width="14.5455" height="14.5455" fill="#D24748"/>
<rect x="72.7273" y="189.091" width="14.5455" height="14.5455" fill="#D24748"/>
<rect x="290.909" y="218.182" width="14.5455" height="14.5455" fill="#85160D"/>
<rect x="87.2727" y="174.545" width="14.5455" height="14.5455" fill="#D24748"/>
<rect x="305.455" y="218.182" width="14.5455" height="14.5455" fill="#973631"/>
<rect x="116.364" y="174.545" width="14.5455" height="14.5455" fill="#D24748"/>
<rect x="14.5455" y="174.545" width="14.5455" height="14.5455" fill="#D24748"/>
<rect x="87.2727" y="189.091" width="14.5455" height="14.5455" fill="#D24748"/>
<rect x="116.364" y="189.091" width="14.5455" height="14.5455" fill="#D24748"/>
<rect x="145.454" y="203.637" width="14.5455" height="14.5455" fill="#D24748"/>
<rect x="203.636" y="203.637" width="14.5455" height="14.5455" fill="#D24748"/>
<rect x="14.5455" y="189.091" width="14.5455" height="14.5455" fill="#D24748"/>
<rect x="261.818" y="203.637" width="14.5455" height="14.5455" fill="#D24748"/>
<rect x="29.0908" y="174.545" width="14.5455" height="14.5455" fill="#D24748"/>
<rect x="174.546" y="203.637" width="14.5455" height="14.5455" fill="#D24748"/>
<rect x="232.727" y="203.637" width="14.5455" height="14.5455" fill="#D24748"/>
<rect x="72.7273" y="160" width="14.5455" height="14.5455" fill="#D24748"/>
<rect x="72.7273" y="130.909" width="14.5455" height="14.5455" fill="#D24748"/>
<rect x="101.818" y="160" width="14.5455" height="14.5455" fill="#D24748"/>
<rect x="101.818" y="130.909" width="14.5455" height="14.5455" fill="#D24748"/>
<rect x="72.7273" y="116.363" width="14.5455" height="14.5455" fill="#D24748"/>
<rect x="29.0908" y="189.091" width="14.5455" height="14.5455" fill="#D24748"/>
<rect x="58.1819" y="189.091" width="14.5455" height="14.5455" fill="#D24748"/>
<rect x="101.818" y="145.455" width="14.5455" height="14.5455" fill="#D24748"/>
<rect x="116.364" y="116.363" width="14.5455" height="14.5455" fill="#D24748"/>
<rect x="101.818" y="116.363" width="14.5455" height="14.5455" fill="#D24748"/>
<rect x="290.909" y="203.637" width="14.5455" height="14.5455" fill="#85160D"/>
<rect x="305.455" y="203.637" width="14.5455" height="14.5455" fill="#973631"/>
<rect x="58.1819" y="261.818" width="14.5455" height="14.5455" fill="#D24748"/>
<rect x="189.091" y="174.545" width="14.5455" height="14.5455" fill="#D24748"/>
<rect x="43.6364" y="247.272" width="14.5455" height="14.5455" fill="#D24748"/>
<rect x="87.2727" y="160" width="14.5455" height="14.5455" fill="#D24748"/>
<rect x="87.2727" y="130.909" width="14.5455" height="14.5455" fill="#D24748"/>
<rect x="247.273" y="174.545" width="14.5455" height="14.5455" fill="#D24748"/>
<rect x="14.5455" y="160" width="14.5455" height="14.5455" fill="#D24748"/>
<rect x="14.5455" y="130.909" width="14.5455" height="14.5455" fill="#D24748"/>
<rect x="43.6364" y="130.909" width="14.5455" height="14.5455" fill="#D24748"/>
<rect x="14.5455" y="145.455" width="14.5455" height="14.5455" fill="#D24748"/>
<rect x="14.5455" y="116.363" width="14.5455" height="14.5455" fill="#D24748"/>
<rect x="189.091" y="189.091" width="14.5455" height="14.5455" fill="#D24748"/>
<rect x="116.364" y="160" width="14.5455" height="14.5455" fill="#D24748"/>
<rect x="116.364" y="130.909" width="14.5455" height="14.5455" fill="#D24748"/>
<rect x="87.2727" y="116.363" width="14.5455" height="14.5455" fill="#D24748"/>
<rect x="116.364" y="145.455" width="14.5455" height="14.5455" fill="#D24748"/>
<rect x="130.909" y="116.363" width="14.5455" height="14.5455" fill="#D24748"/>
<rect x="43.6364" y="116.363" width="14.5455" height="14.5455" fill="#D24748"/>
<rect x="145.454" y="174.545" width="14.5455" height="14.5455" fill="#D24748"/>
<rect x="174.546" y="174.545" width="14.5455" height="14.5455" fill="#D24748"/>
<rect x="145.454" y="189.091" width="14.5455" height="14.5455" fill="#D24748"/>
<rect x="276.364" y="174.545" width="14.5455" height="14.5455" fill="#D24748"/>
<rect x="247.273" y="189.091" width="14.5455" height="14.5455" fill="#D24748"/>
<rect x="276.364" y="189.091" width="14.5455" height="14.5455" fill="#D24748"/>
<rect x="29.0908" y="160" width="14.5455" height="14.5455" fill="#D24748"/>
<rect x="29.0908" y="130.909" width="14.5455" height="14.5455" fill="#D24748"/>
<rect x="130.909" y="130.909" width="14.5455" height="14.5455" fill="#D24748"/>
<rect x="160" y="130.909" width="14.5455" height="14.5455" fill="#D24748"/>
<rect x="130.909" y="145.455" width="14.5455" height="14.5455" fill="#D24748"/>
<rect x="160" y="145.455" width="14.5455" height="14.5455" fill="#D24748"/>
<rect x="203.636" y="174.545" width="14.5455" height="14.5455" fill="#D24748"/>
<rect x="232.727" y="174.545" width="14.5455" height="14.5455" fill="#D24748"/>
<rect x="203.636" y="189.091" width="14.5455" height="14.5455" fill="#D24748"/>
<rect x="232.727" y="189.091" width="14.5455" height="14.5455" fill="#D24748"/>
<rect x="58.1819" y="160" width="14.5455" height="14.5455" fill="#D24748"/>
<rect x="58.1819" y="130.909" width="14.5455" height="14.5455" fill="#D24748"/>
<rect x="29.0908" y="145.455" width="14.5455" height="14.5455" fill="#D24748"/>
<rect x="29.0908" y="116.363" width="14.5455" height="14.5455" fill="#D24748"/>
<rect x="58.1819" y="116.363" width="14.5455" height="14.5455" fill="#D24748"/>
<rect x="72.7273" y="101.818" width="14.5455" height="14.5455" fill="#D24748"/>
<rect x="101.818" y="101.818" width="14.5455" height="14.5455" fill="#D24748"/>
<rect x="87.2727" y="101.818" width="14.5455" height="14.5455" fill="#D24748"/>
<rect x="87.2727" y="87.2725" width="14.5455" height="14.5455" fill="#D24748"/>
<rect x="101.818" y="72.7275" width="14.5455" height="14.5455" fill="#D24748"/>
<rect x="43.6364" y="101.818" width="14.5455" height="14.5455" fill="#D24748"/>
<rect x="29.0908" y="101.818" width="14.5455" height="14.5455" fill="#D24748"/>
<rect x="58.1819" y="101.818" width="14.5455" height="14.5455" fill="#D24748"/>
<rect x="145.454" y="160" width="14.5455" height="14.5455" fill="#D24748"/>
<rect x="145.454" y="130.909" width="14.5455" height="14.5455" fill="#D24748"/>
<rect x="189.091" y="130.909" width="14.5455" height="14.5455" fill="#D24748"/>
<rect x="218.182" y="130.909" width="14.5455" height="14.5455" fill="#D24748"/>
<rect x="189.091" y="145.455" width="14.5455" height="14.5455" fill="#D24748"/>
<rect x="218.182" y="145.455" width="14.5455" height="14.5455" fill="#D24748"/>
<rect x="218.182" y="116.363" width="14.5455" height="14.5455" fill="#D24748"/>
<rect x="174.546" y="130.909" width="14.5455" height="14.5455" fill="#D24748"/>
<rect x="145.454" y="145.455" width="14.5455" height="14.5455" fill="#D24748"/>
<rect x="174.546" y="145.455" width="14.5455" height="14.5455" fill="#D24748"/>
<rect x="203.636" y="160" width="14.5455" height="14.5455" fill="#D24748"/>
<rect x="203.636" y="130.909" width="14.5455" height="14.5455" fill="#D24748"/>
<rect x="232.727" y="160" width="14.5455" height="14.5455" fill="#D24748"/>
<rect x="232.727" y="130.909" width="14.5455" height="14.5455" fill="#D24748"/>
<rect x="203.636" y="145.455" width="14.5455" height="14.5455" fill="#D24748"/>
<rect x="203.636" y="116.363" width="14.5455" height="14.5455" fill="#D24748"/>
<rect x="232.727" y="145.455" width="14.5455" height="14.5455" fill="#D24748"/>
<rect x="232.727" y="116.363" width="14.5455" height="14.5455" fill="#D24748"/>
<rect x="58.1819" y="247.272" width="14.5455" height="14.5455" fill="#D24748"/>
<rect x="261.818" y="174.545" width="14.5455" height="14.5455" fill="#D24748"/>
<rect x="290.909" y="174.545" width="14.5455" height="14.5455" fill="#85160D"/>
<rect x="305.455" y="174.545" width="14.5455" height="14.5455" fill="#973631"/>
<rect x="261.818" y="189.091" width="14.5455" height="14.5455" fill="#D24748"/>
<rect x="290.909" y="189.091" width="14.5455" height="14.5455" fill="#85160D"/>
<rect x="305.455" y="189.091" width="14.5455" height="14.5455" fill="#973631"/>
<rect x="29.0908" y="232.728" width="14.5455" height="14.5455" fill="#D24748"/>
<rect x="14.5455" y="218.182" width="14.5455" height="14.5455" fill="#D24748"/>
<rect x="43.6364" y="232.728" width="14.5455" height="14.5455" fill="#D24748"/>
<rect x="101.818" y="203.637" width="14.5455" height="14.5455" fill="#97312F"/>
<rect x="43.6364" y="203.637" width="14.5455" height="14.5455" fill="#97312F"/>
<rect x="101.818" y="218.182" width="14.5455" height="14.5455" fill="#97312F"/>
<rect x="130.909" y="218.182" width="14.5455" height="14.5455" fill="#97312F"/>
<rect x="160" y="218.182" width="14.5455" height="14.5455" fill="#97312F"/>
<rect x="116.364" y="218.182" width="14.5455" height="14.5455" fill="#97312F"/>
<rect x="189.091" y="218.182" width="14.5455" height="14.5455" fill="#97312F"/>
<rect x="218.182" y="218.182" width="14.5455" height="14.5455" fill="#97312F"/>
<rect x="174.546" y="218.182" width="14.5455" height="14.5455" fill="#97312F"/>
<rect x="232.727" y="218.182" width="14.5455" height="14.5455" fill="#97312F"/>
<rect x="130.909" y="203.637" width="14.5455" height="14.5455" fill="#97312F"/>
<rect x="160" y="203.637" width="14.5455" height="14.5455" fill="#97312F"/>
<rect x="247.273" y="218.182" width="14.5455" height="14.5455" fill="#97312F"/>
<rect x="218.182" y="203.637" width="14.5455" height="14.5455" fill="#97312F"/>
<rect x="72.7273" y="174.545" width="14.5455" height="14.5455" fill="#97312F"/>
<rect x="101.818" y="174.545" width="14.5455" height="14.5455" fill="#97312F"/>
<rect x="101.818" y="189.091" width="14.5455" height="14.5455" fill="#97312F"/>
<rect x="43.6364" y="174.545" width="14.5455" height="14.5455" fill="#97312F"/>
<rect x="43.6364" y="189.091" width="14.5455" height="14.5455" fill="#97312F"/>
<rect x="58.1819" y="174.545" width="14.5455" height="14.5455" fill="#97312F"/>
<rect x="72.7273" y="145.455" width="14.5455" height="14.5455" fill="#97312F"/>
<rect x="130.909" y="174.545" width="14.5455" height="14.5455" fill="#97312F"/>
<rect x="160" y="174.545" width="14.5455" height="14.5455" fill="#97312F"/>
<rect x="130.909" y="189.091" width="14.5455" height="14.5455" fill="#97312F"/>
<rect x="160" y="189.091" width="14.5455" height="14.5455" fill="#97312F"/>
<rect x="43.6364" y="160" width="14.5455" height="14.5455" fill="#97312F"/>
<rect x="218.182" y="174.545" width="14.5455" height="14.5455" fill="#97312F"/>
<rect x="218.182" y="189.091" width="14.5455" height="14.5455" fill="#97312F"/>
<rect x="87.2727" y="145.455" width="14.5455" height="14.5455" fill="#97312F"/>
<rect x="43.6364" y="145.455" width="14.5455" height="14.5455" fill="#97312F"/>
<rect x="174.546" y="189.091" width="14.5455" height="14.5455" fill="#97312F"/>
<rect x="130.909" y="160" width="14.5455" height="14.5455" fill="#97312F"/>
<rect x="160" y="160" width="14.5455" height="14.5455" fill="#97312F"/>
<rect x="58.1819" y="145.455" width="14.5455" height="14.5455" fill="#97312F"/>
<rect x="189.091" y="160" width="14.5455" height="14.5455" fill="#97312F"/>
<rect x="218.182" y="160" width="14.5455" height="14.5455" fill="#97312F"/>
<rect x="174.546" y="160" width="14.5455" height="14.5455" fill="#97312F"/>
<rect x="43.6364" y="218.182" width="14.5455" height="14.5455" fill="#97312F"/>
<rect x="247.273" y="160" width="14.5455" height="14.5455" fill="#D24748"/>
<rect x="247.273" y="130.909" width="14.5455" height="14.5455" fill="#D24748"/>
<rect x="276.364" y="160" width="14.5455" height="14.5455" fill="#D24748"/>
<rect x="276.364" y="130.909" width="14.5455" height="14.5455" fill="#F78F77"/>
<rect x="247.273" y="145.455" width="14.5455" height="14.5455" fill="#D24748"/>
<rect x="247.273" y="116.363" width="14.5455" height="14.5455" fill="#D24748"/>
<rect x="232.727" y="101.818" width="14.5455" height="14.5455" fill="#D24748"/>
<rect x="247.273" y="101.818" width="14.5455" height="14.5455" fill="#D24748"/>
<rect x="276.364" y="145.455" width="14.5455" height="14.5455" fill="#F78F77"/>
<rect x="276.364" y="116.363" width="14.5455" height="14.5455" fill="#F78F77"/>
<rect x="261.818" y="101.818" width="14.5455" height="14.5455" fill="#F78F77"/>
<rect x="247.273" y="87.2725" width="14.5455" height="14.5455" fill="#F78F77"/>
<rect x="232.727" y="72.7275" width="14.5455" height="14.5455" fill="#F78F77"/>
<rect x="218.182" y="58.1821" width="14.5455" height="14.5455" fill="#F78F77"/>
<rect x="203.636" y="58.1821" width="14.5455" height="14.5455" fill="#97312F"/>
<rect x="203.636" y="43.6367" width="14.5455" height="14.5455" fill="#F78F77"/>
<rect x="189.091" y="43.6367" width="14.5455" height="14.5455" fill="#F78F77"/>
<rect x="174.546" y="43.6367" width="14.5455" height="14.5455" fill="#F78F77"/>
<rect x="160" y="43.6367" width="14.5455" height="14.5455" fill="#F78F77"/>
<rect x="145.454" y="43.6367" width="14.5455" height="14.5455" fill="#F78F77"/>
<rect x="29.0908" y="43.6367" width="14.5455" height="14.5455" fill="#24201B"/>
<rect x="43.6364" y="43.6367" width="14.5455" height="14.5455" fill="#F78F77"/>
<rect x="29.0908" y="43.6367" width="14.5455" height="14.5455" fill="#F78F77"/>
<rect x="29.0908" y="58.1821" width="14.5455" height="14.5455" fill="#24201B"/>
<rect x="43.6364" y="58.1821" width="14.5455" height="14.5455" fill="#B94C4A"/>
<rect x="29.0908" y="58.1821" width="14.5455" height="14.5455" fill="#B94C4A"/>
<rect x="29.0908" y="58.1821" width="14.5455" height="14.5455" fill="#24201B"/>
<rect x="43.6364" y="58.1821" width="14.5455" height="14.5455" fill="#B94C4A"/>
<rect x="29.0908" y="58.1821" width="14.5455" height="14.5455" fill="#B94C4A"/>
<rect x="58.1819" y="232.728" width="14.5455" height="14.5455" fill="#D24748"/>
<rect x="58.1819" y="218.182" width="14.5455" height="14.5455" fill="#D24748"/>
<rect x="29.0908" y="218.182" width="14.5455" height="14.5455" fill="#D24748"/>
<rect x="261.818" y="160" width="14.5455" height="14.5455" fill="#D24748"/>
<rect x="261.818" y="130.909" width="14.5455" height="14.5455" fill="#D24748"/>
<rect x="290.909" y="160" width="14.5455" height="14.5455" fill="#85160D"/>
<rect x="290.909" y="130.909" width="14.5455" height="14.5455" fill="#85160D"/>
<rect x="276.364" y="101.818" width="14.5455" height="14.5455" fill="#85160D"/>
<rect x="261.818" y="87.2725" width="14.5455" height="14.5455" fill="#85160D"/>
<rect x="247.273" y="72.7275" width="14.5455" height="14.5455" fill="#85160D"/>
<rect x="232.727" y="58.1821" width="14.5455" height="14.5455" fill="#85160D"/>
<rect x="218.182" y="43.6367" width="14.5455" height="14.5455" fill="#85160D"/>
<rect x="145.454" y="58.1821" width="14.5455" height="14.5455" fill="#85160D"/>
<rect x="130.909" y="58.1821" width="14.5455" height="14.5455" fill="#97312F"/>
<rect x="160" y="58.1821" width="14.5455" height="14.5455" fill="#85160D"/>
<rect x="174.546" y="58.1821" width="14.5455" height="14.5455" fill="#85160D"/>
<rect x="174.546" y="58.1821" width="14.5455" height="14.5455" fill="#85160D"/>
<rect x="189.091" y="58.1821" width="14.5455" height="14.5455" fill="#85160D"/>
<rect x="203.636" y="72.7275" width="14.5455" height="14.5455" fill="#85160D"/>
<rect x="218.182" y="72.7275" width="14.5455" height="14.5455" fill="#85160D"/>
<rect x="218.182" y="101.818" width="14.5455" height="14.5455" fill="#85160D"/>
<rect x="232.727" y="87.2725" width="14.5455" height="14.5455" fill="#85160D"/>
<rect x="218.182" y="87.2725" width="14.5455" height="14.5455" fill="#85160D"/>
<rect x="203.636" y="101.818" width="14.5455" height="14.5455" fill="#85160D"/>
<rect x="189.091" y="116.363" width="14.5455" height="14.5455" fill="#85160D"/>
<rect x="203.636" y="116.363" width="14.5455" height="14.5455" fill="#85160D"/>
<rect x="174.546" y="116.363" width="14.5455" height="14.5455" fill="#85160D"/>
<rect x="160" y="116.363" width="14.5455" height="14.5455" fill="#85160D"/>
<rect x="145.454" y="116.363" width="14.5455" height="14.5455" fill="#85160D"/>
<rect x="130.909" y="116.363" width="14.5455" height="14.5455" fill="#85160D"/>
<rect x="130.909" y="101.818" width="14.5455" height="14.5455" fill="#85160D"/>
<rect x="116.364" y="87.2725" width="14.5455" height="14.5455" fill="#85160D"/>
<rect x="130.909" y="72.7275" width="14.5455" height="14.5455" fill="#85160D"/>
<rect x="116.364" y="72.7275" width="14.5455" height="14.5455" fill="#85160D"/>
<rect x="116.364" y="101.818" width="14.5455" height="14.5455" fill="#85160D"/>
<rect x="101.818" y="87.2725" width="14.5455" height="14.5455" fill="#85160D"/>
<rect x="305.455" y="160" width="14.5455" height="14.5455" fill="#973631"/>
<rect x="305.455" y="130.909" width="14.5455" height="14.5455" fill="#692118"/>
<rect x="261.818" y="145.455" width="14.5455" height="14.5455" fill="#D24748"/>
<rect x="261.818" y="116.363" width="14.5455" height="14.5455" fill="#D24748"/>
<rect x="290.909" y="145.455" width="14.5455" height="14.5455" fill="#85160D"/>
<rect x="290.909" y="116.363" width="14.5455" height="14.5455" fill="#692118"/>
<rect x="305.455" y="145.455" width="14.5455" height="14.5455" fill="#973631"/>
<rect x="305.455" y="116.363" width="14.5455" height="14.5455" fill="#692118"/>
<rect x="29.0908" y="276.363" width="14.5455" height="14.5455" fill="#9D3129"/>
<rect x="43.6364" y="261.818" width="14.5455" height="14.5455" fill="#9D3129"/>
<rect x="58.1819" y="276.363" width="14.5455" height="14.5455" fill="#9D3129"/>
<rect x="29.0908" y="290.909" width="14.5455" height="14.5455" fill="#9D3129"/>
<rect x="43.6364" y="290.909" width="14.5455" height="14.5455" fill="#9D3129"/>
<rect x="58.1819" y="290.909" width="14.5455" height="14.5455" fill="#9D3129"/>
<rect x="72.7273" y="290.909" width="14.5455" height="14.5455" fill="#9D3129"/>
<rect x="87.2727" y="290.909" width="14.5455" height="14.5455" fill="#9D3129"/>
<rect x="101.818" y="290.909" width="14.5455" height="14.5455" fill="#9D3129"/>
<rect x="116.364" y="290.909" width="14.5455" height="14.5455" fill="#9D3129"/>
<rect x="130.909" y="290.909" width="14.5455" height="14.5455" fill="#9D3129"/>
<rect x="145.454" y="290.909" width="14.5455" height="14.5455" fill="#9D3129"/>
<rect x="160" y="290.909" width="14.5455" height="14.5455" fill="#9D3129"/>
<rect x="174.546" y="290.909" width="14.5455" height="14.5455" fill="#9D3129"/>
<rect x="189.091" y="290.909" width="14.5455" height="14.5455" fill="#9D3129"/>
<rect x="203.636" y="290.909" width="14.5455" height="14.5455" fill="#9D3129"/>
<rect x="261.818" y="290.909" width="14.5455" height="14.5455" fill="#9D3129"/>
<rect x="218.182" y="290.909" width="14.5455" height="14.5455" fill="#9D3129"/>
<rect x="276.364" y="290.909" width="14.5455" height="14.5455" fill="#692118"/>
<rect x="232.727" y="290.909" width="14.5455" height="14.5455" fill="#9D3129"/>
<rect x="290.909" y="290.909" width="14.5455" height="14.5455" fill="#692118"/>
<rect x="247.273" y="290.909" width="14.5455" height="14.5455" fill="#9D3129"/>
<rect x="305.455" y="290.909" width="14.5455" height="14.5455" fill="#692118"/>
<rect x="320" y="290.909" width="14.5455" height="14.5455" fill="#24201B"/>
<rect x="43.6364" y="305.455" width="14.5455" height="14.5455" transform="rotate(90 43.6364 305.455)" fill="#24201B"/>
<rect x="203.636" y="72.7275" width="14.5455" height="14.5455" transform="rotate(90 203.636 72.7275)" fill="#24201B"/>
<rect x="218.182" y="87.2725" width="14.5455" height="14.5455" transform="rotate(90 218.182 87.2725)" fill="#24201B"/>
<rect x="189.091" y="72.7275" width="14.5455" height="14.5455" transform="rotate(90 189.091 72.7275)" fill="#24201B"/>
<rect x="174.546" y="72.7275" width="14.5455" height="14.5455" transform="rotate(90 174.546 72.7275)" fill="#24201B"/>
<rect x="160" y="72.7275" width="14.5455" height="14.5455" transform="rotate(90 160 72.7275)" fill="#24201B"/>
<rect x="145.454" y="87.2725" width="14.5455" height="14.5455" transform="rotate(90 145.454 87.2725)" fill="#24201B"/>
<rect x="203.636" y="101.818" width="14.5455" height="14.5455" transform="rotate(90 203.636 101.818)" fill="#24201B"/>
<rect x="189.091" y="101.818" width="14.5455" height="14.5455" transform="rotate(90 189.091 101.818)" fill="#24201B"/>
<rect x="174.546" y="101.818" width="14.5455" height="14.5455" transform="rotate(90 174.546 101.818)" fill="#24201B"/>
<rect x="160" y="101.818" width="14.5455" height="14.5455" transform="rotate(90 160 101.818)" fill="#24201B"/>
</svg>
