<svg width="290" height="266" viewBox="0 0 290 266" fill="none" xmlns="http://www.w3.org/2000/svg">
<rect x="30" width="10" height="10" fill="#938D8F"/>
<rect x="100" width="10" height="10" fill="#938D8F"/>
<rect y="50" width="10" height="11" fill="#938D8F"/>
<rect x="80" y="210" width="10" height="10" fill="#938D8F"/>
<rect x="140" y="190" width="10" height="10" fill="#938D8F"/>
<rect x="10" y="190" width="10" height="10" fill="#938D8F"/>
<rect x="110" y="170" width="10" height="10" fill="#938D8F"/>
<rect x="60" y="170" width="10" height="10" fill="#938D8F"/>
<rect x="80" y="180" width="10" height="10" fill="#938D8F"/>
<rect x="100" y="200" width="10" height="10" fill="#938D8F"/>
<rect x="110" y="190" width="10" height="10" fill="#938D8F"/>
<rect x="60" y="50" width="10" height="10" fill="#AFADAE"/>
<rect x="70" width="10" height="10" fill="#938D8F"/>
<rect x="80" width="10" height="10" fill="#938D8F"/>
<rect x="90" width="10" height="10" fill="#938D8F"/>
<rect x="210" y="40" width="10" height="10" fill="#938D8F"/>
<rect x="180" y="40" width="10" height="10" fill="#938D8F"/>
<rect x="170" y="20" width="10" height="10" fill="#938D8F"/>
<rect x="170" y="40" width="10" height="10" fill="#938D8F"/>
<rect x="190" y="40" width="10" height="10" fill="#938D8F"/>
<rect x="200" y="40" width="10" height="10" fill="#938D8F"/>
<rect x="60" y="10" width="10" height="10" fill="#938D8F"/>
<rect x="60" y="20" width="10" height="10" fill="#938D8F"/>
<rect x="60" y="40" width="10" height="10" fill="#938D8F"/>
<rect x="50" y="40" width="10" height="10" fill="#938D8F"/>
<rect x="50" y="50" width="10" height="10" fill="#938D8F"/>
<rect x="60" y="30" width="10" height="10" fill="#938D8F"/>
<rect x="50" y="30" width="10" height="10" fill="#938D8F"/>
<rect x="70" y="10" width="10" height="10" fill="#938D8F"/>
<rect x="40" y="50" width="10" height="10" fill="#938D8F"/>
<rect x="30" y="50" width="10" height="10" fill="#938D8F"/>
<rect x="30" y="60" width="10" height="10" fill="#938D8F"/>
<rect x="20" y="60" width="10" height="10" fill="#938D8F"/>
<rect x="20" y="70" width="10" height="10" fill="#938D8F"/>
<rect x="20" y="80" width="10" height="10" fill="#938D8F"/>
<rect x="10" y="80" width="10" height="10" fill="#938D8F"/>
<rect x="10" y="90" width="10" height="10" fill="#938D8F"/>
<rect y="130" width="10" height="10" fill="#938D8F"/>
<rect y="140" width="10" height="10" fill="#938D8F"/>
<rect x="10" y="140" width="10" height="10" fill="#938D8F"/>
<rect x="10" y="150" width="10" height="10" fill="#938D8F"/>
<rect x="40" y="150" width="10" height="10" transform="rotate(90 40 150)" fill="#938D8F"/>
<rect x="30" y="150" width="10" height="10" transform="rotate(90 30 150)" fill="#938D8F"/>
<rect x="50" y="180" width="10" height="10" fill="#938D8F"/>
<rect x="50" y="190" width="10" height="10" fill="#938D8F"/>
<rect x="70" y="190" width="10" height="10" transform="rotate(90 70 190)" fill="#938D8F"/>
<rect x="20" y="100" width="10" height="10" fill="#938D8F"/>
<rect x="30" y="100" width="10" height="10" fill="#938D8F"/>
<rect x="30" y="110" width="10" height="10" fill="#938D8F"/>
<rect x="40" y="110" width="10" height="10" fill="#938D8F"/>
<rect x="30" y="120" width="10" height="10" fill="#938D8F"/>
<rect x="20" y="120" width="10" height="10" fill="#938D8F"/>
<rect x="10" y="120" width="10" height="10" fill="#938D8F"/>
<rect x="60" y="120" width="10" height="10" fill="#938D8F"/>
<rect x="50" y="120" width="10" height="10" fill="#938D8F"/>
<rect x="40" y="120" width="10" height="10" fill="#938D8F"/>
<rect x="80" y="120" width="10" height="10" fill="#938D8F"/>
<rect x="70" y="120" width="10" height="10" fill="#938D8F"/>
<rect x="80" y="160" width="10" height="10" fill="#938D8F"/>
<rect x="100" y="160" width="10" height="10" fill="#938D8F"/>
<rect x="90" y="160" width="10" height="10" fill="#938D8F"/>
<rect x="90" y="200" width="10" height="10" fill="#938D8F"/>
<rect x="80" y="200" width="10" height="10" fill="#938D8F"/>
<rect x="140" y="210" width="10" height="10" fill="#938D8F"/>
<rect x="110" y="200" width="10" height="10" fill="#938D8F"/>
<rect x="150" y="200" width="10" height="10" fill="#938D8F"/>
<rect x="140" y="200" width="10" height="10" fill="#938D8F"/>
<rect x="130" y="200" width="10" height="10" fill="#938D8F"/>
<rect x="160" y="200" width="10" height="10" fill="#938D8F"/>
<rect x="110" y="50" width="10" height="10" fill="#AFADAE"/>
<rect x="140" y="50" width="10" height="10" fill="#AFADAE"/>
<rect x="130" y="50" width="10" height="10" fill="#AFADAE"/>
<rect x="120" y="50" width="10" height="10" fill="#AFADAE"/>
<rect x="160" y="50" width="10" height="10" fill="#AFADAE"/>
<rect x="150" y="50" width="10" height="10" fill="#AFADAE"/>
<rect x="140" y="60" width="10" height="10" fill="#AFADAE"/>
<rect x="160" y="60" width="10" height="10" fill="#CCCCCC"/>
<rect x="150" y="60" width="10" height="10" fill="#CCCCCC"/>
<rect x="110" y="10" width="10" height="10" fill="#938D8F"/>
<rect x="110" y="30" width="10" height="10" fill="#938D8F"/>
<rect x="110" y="20" width="10" height="10" fill="#938D8F"/>
<rect x="120" y="170" width="10" height="10" fill="#938D8F"/>
<rect x="120" y="190" width="10" height="10" fill="#938D8F"/>
<rect x="120" y="180" width="10" height="10" fill="#938D8F"/>
<rect x="150" y="170" width="10" height="10" fill="#CCCCCC"/>
<rect x="150" y="190" width="10" height="10" fill="#AFADAE"/>
<rect x="150" y="180" width="10" height="10" fill="#938D8F"/>
<rect x="180" y="180" width="10" height="10" fill="#938D8F"/>
<rect x="180" y="200" width="10" height="10" fill="#938D8F"/>
<rect x="180" y="190" width="10" height="10" fill="#938D8F"/>
<rect x="230" y="180" width="10" height="10" fill="#938D8F"/>
<rect x="220" y="180" width="10" height="10" fill="#938D8F"/>
<rect x="230" y="200" width="10" height="10" fill="#938D8F"/>
<rect x="230" y="190" width="10" height="10" fill="#938D8F"/>
<rect x="220" y="150" width="10" height="10" fill="#938D8F"/>
<rect x="220" y="170" width="10" height="10" fill="#938D8F"/>
<rect x="220" y="160" width="10" height="10" fill="#938D8F"/>
<rect x="250" y="120" width="10" height="10" fill="#938D8F"/>
<rect x="250" y="140" width="10" height="10" fill="#938D8F"/>
<rect x="250" y="130" width="10" height="10" fill="#938D8F"/>
<rect x="240" y="110" width="10" height="10" fill="#938D8F"/>
<rect x="240" y="130" width="10" height="10" fill="#938D8F"/>
<rect x="240" y="120" width="10" height="10" fill="#938D8F"/>
<rect x="230" y="160" width="10" height="10" fill="#938D8F"/>
<rect x="240" y="150" width="10" height="10" fill="#938D8F"/>
<rect x="160" y="170" width="10" height="10" fill="#938D8F"/>
<rect x="170" y="170" width="10" height="10" fill="#938D8F"/>
<rect x="200" y="210" width="10" height="10" fill="#938D8F"/>
<rect x="210" y="210" width="10" height="10" fill="#938D8F"/>
<rect x="220" y="210" width="10" height="10" fill="#938D8F"/>
<rect x="230" y="210" width="10" height="10" fill="#938D8F"/>
<rect x="230" y="80" width="10" height="10" fill="#938D8F"/>
<rect x="240" y="80" width="10" height="10" fill="#938D8F"/>
<rect x="240" y="70" width="10" height="10" fill="#938D8F"/>
<rect x="240" y="50" width="10" height="10" fill="#938D8F"/>
<rect x="240" y="10" width="10" height="10" fill="#938D8F"/>
<rect x="250" y="80" width="10" height="10" fill="#938D8F"/>
<rect x="250" y="90" width="10" height="10" fill="#938D8F"/>
<rect x="260" y="100" width="10" height="10" fill="#938D8F"/>
<rect x="260" y="110" width="10" height="10" fill="#938D8F"/>
<rect x="230" y="100" width="10" height="10" fill="#938D8F"/>
<rect x="230" y="90" width="10" height="10" fill="#938D8F"/>
<rect x="220" y="90" width="10" height="10" fill="#938D8F"/>
<rect x="210" y="80" width="10" height="10" fill="#938D8F"/>
<rect x="230" y="110" width="10" height="10" fill="#938D8F"/>
<rect x="170" y="180" width="10" height="10" fill="#938D8F"/>
<rect x="190" y="210" width="10" height="10" fill="#938D8F"/>
<rect x="160" y="236" width="10" height="10" fill="#938D8F"/>
<rect x="160" y="190" width="10" height="10" fill="#938D8F"/>
<rect x="160" y="180" width="10" height="10" fill="#938D8F"/>
<rect x="120" y="30" width="10" height="10" fill="#938D8F"/>
<rect x="120" y="20" width="10" height="10" fill="#938D8F"/>
<rect x="140" y="40" width="10" height="10" transform="rotate(-90 140 40)" fill="#938D8F"/>
<rect x="130" y="40" width="10" height="10" transform="rotate(-90 130 40)" fill="#938D8F"/>
<rect x="140" y="40" width="10" height="10" fill="#938D8F"/>
<rect x="140" y="10" width="10" height="10" fill="#938D8F"/>
<rect x="140" width="10" height="10" fill="#938D8F"/>
<rect x="220" y="60" width="10" height="10" fill="#938D8F"/>
<rect x="220" y="50" width="10" height="10" fill="#938D8F"/>
<rect x="150" y="10" width="10" height="10" fill="#938D8F"/>
<rect x="120" y="40" width="10" height="10" fill="#CCCCCC"/>
<rect x="130" y="40" width="10" height="10" fill="#CCCCCC"/>
<rect x="150" width="10" height="10" fill="#AFADAE"/>
<rect x="70" y="20" width="10" height="10" fill="#AFADAE"/>
<rect x="90" y="20" width="10" height="10" fill="#AFADAE"/>
<rect x="80" y="20" width="10" height="10" fill="#AFADAE"/>
<rect x="70" y="30" width="10" height="10" fill="#AFADAE"/>
<rect x="90" y="30" width="10" height="10" fill="#AFADAE"/>
<rect x="80" y="30" width="10" height="10" fill="#938D8F"/>
<rect x="80" y="10" width="10" height="10" fill="#AFADAE"/>
<rect x="90" y="10" width="10" height="10" fill="#AFADAE"/>
<rect x="70" y="40" width="10" height="10" fill="#AFADAE"/>
<rect x="110" y="40" width="10" height="10" fill="#AFADAE"/>
<rect x="90" y="40" width="10" height="10" fill="#AFADAE"/>
<rect x="100" y="20" width="10" height="10" fill="#AFADAE"/>
<rect x="100" y="30" width="10" height="10" fill="#AFADAE"/>
<rect x="100" y="10" width="10" height="10" fill="#AFADAE"/>
<rect x="100" y="40" width="10" height="10" fill="#AFADAE"/>
<rect x="80" y="40" width="10" height="10" fill="#AFADAE"/>
<rect x="130" y="40" width="10" height="10" fill="#CCCCCC"/>
<rect x="120" y="40" width="10" height="10" fill="#CCCCCC"/>
<rect x="80" y="60" width="10" height="10" transform="rotate(-90 80 60)" fill="#AFADAE"/>
<rect x="90" y="60" width="10" height="10" transform="rotate(-90 90 60)" fill="#AFADAE"/>
<rect x="70" y="60" width="10" height="10" transform="rotate(-90 70 60)" fill="#AFADAE"/>
<rect x="100" y="60" width="10" height="10" transform="rotate(-90 100 60)" fill="#CCCCCC"/>
<rect x="80" y="60" width="10" height="10" fill="#AFADAE"/>
<rect x="110" y="60" width="10" height="10" fill="#AFADAE"/>
<rect x="100" y="60" width="10" height="10" fill="#938D8F"/>
<rect x="90" y="60" width="10" height="10" fill="#AFADAE"/>
<rect x="130" y="60" width="10" height="10" fill="#AFADAE"/>
<rect x="120" y="60" width="10" height="10" fill="#AFADAE"/>
<rect x="190" y="50" width="10" height="10" fill="#AFADAE"/>
<rect x="180" y="50" width="10" height="10" fill="#CCCCCC"/>
<rect x="170" y="50" width="10" height="10" fill="#CCCCCC"/>
<rect x="210" y="50" width="10" height="10" fill="#AFADAE"/>
<rect x="200" y="50" width="10" height="10" fill="#AFADAE"/>
<rect x="190" y="60" width="10" height="10" fill="#CCCCCC"/>
<rect x="210" y="60" width="10" height="10" fill="#AFADAE"/>
<rect x="200" y="60" width="10" height="10" fill="#AFADAE"/>
<rect x="190" y="70" width="10" height="10" fill="#CCCCCC"/>
<rect x="200" y="70" width="10" height="10" fill="#CCCCCC"/>
<rect x="190" y="80" width="10" height="10" fill="#AFADAE"/>
<rect x="200" y="80" width="10" height="10" fill="#AFADAE"/>
<rect x="180" y="60" width="10" height="10" fill="#CCCCCC"/>
<rect x="170" y="60" width="10" height="10" fill="#AFADAE"/>
<rect x="50" y="70" width="10" height="10" transform="rotate(-90 50 70)" fill="#CCCCCC"/>
<rect x="60" y="70" width="10" height="10" transform="rotate(-90 60 70)" fill="#CCCCCC"/>
<rect x="40" y="70" width="10" height="10" transform="rotate(-90 40 70)" fill="#AFADAE"/>
<rect x="70" y="70" width="10" height="10" transform="rotate(-90 70 70)" fill="#938D8F"/>
<rect x="70" y="70" width="10" height="10" fill="#CCCCCC"/>
<rect x="100" y="70" width="10" height="10" fill="#AFADAE"/>
<rect x="90" y="70" width="10" height="10" fill="#AFADAE"/>
<rect x="80" y="70" width="10" height="10" fill="#AFADAE"/>
<rect x="120" y="70" width="10" height="10" fill="#CCCCCC"/>
<rect x="110" y="70" width="10" height="10" fill="#938D8F"/>
<rect x="40" y="80" width="10" height="10" transform="rotate(-90 40 80)" fill="#AFADAE"/>
<rect x="50" y="80" width="10" height="10" transform="rotate(-90 50 80)" fill="#AFADAE"/>
<rect x="30" y="80" width="10" height="10" transform="rotate(-90 30 80)" fill="#AFADAE"/>
<rect x="60" y="80" width="10" height="10" transform="rotate(-90 60 80)" fill="#CCCCCC"/>
<rect x="70" y="80" width="10" height="10" fill="#AFADAE"/>
<rect x="100" y="80" width="10" height="10" fill="#AFADAE"/>
<rect x="90" y="80" width="10" height="10" fill="#AFADAE"/>
<rect x="80" y="80" width="10" height="10" fill="#AFADAE"/>
<rect x="120" y="80" width="10" height="10" fill="#938D8F"/>
<rect x="110" y="80" width="10" height="10" fill="#CCCCCC"/>
<rect x="40" y="90" width="10" height="10" transform="rotate(-90 40 90)" fill="#AFADAE"/>
<rect x="50" y="90" width="10" height="10" transform="rotate(-90 50 90)" fill="#AFADAE"/>
<rect x="30" y="90" width="10" height="10" transform="rotate(-90 30 90)" fill="#AFADAE"/>
<rect x="60" y="90" width="10" height="10" transform="rotate(-90 60 90)" fill="#AFADAE"/>
<rect x="60" y="90" width="10" height="10" fill="#938D8F"/>
<rect x="90" y="90" width="10" height="10" fill="#AFADAE"/>
<rect x="80" y="90" width="10" height="10" fill="#AFADAE"/>
<rect x="70" y="90" width="10" height="10" fill="#938D8F"/>
<rect x="110" y="90" width="10" height="10" fill="#CCCCCC"/>
<rect x="120" y="90" width="10" height="10" fill="#CCCCCC"/>
<rect x="100" y="90" width="10" height="10" fill="#AFADAE"/>
<rect x="30" y="100" width="10" height="10" transform="rotate(-90 30 100)" fill="#AFADAE"/>
<rect x="40" y="100" width="10" height="10" transform="rotate(-90 40 100)" fill="#AFADAE"/>
<rect x="20" y="100" width="10" height="10" transform="rotate(-90 20 100)" fill="#AFADAE"/>
<rect x="50" y="100" width="10" height="10" transform="rotate(-90 50 100)" fill="#938D8F"/>
<rect x="80" y="100" width="10" height="10" fill="#AFADAE"/>
<rect x="110" y="100" width="10" height="10" fill="#AFADAE"/>
<rect x="100" y="100" width="10" height="10" fill="#938D8F"/>
<rect x="90" y="100" width="10" height="10" fill="#938D8F"/>
<rect x="130" y="100" width="10" height="10" fill="#CCCCCC"/>
<rect x="120" y="100" width="10" height="10" fill="#CCCCCC"/>
<rect x="50" y="110" width="10" height="10" transform="rotate(-90 50 110)" fill="#938D8F"/>
<rect x="60" y="110" width="10" height="10" transform="rotate(-90 60 110)" fill="#938D8F"/>
<rect x="40" y="110" width="10" height="10" transform="rotate(-90 40 110)" fill="#AFADAE"/>
<rect x="70" y="110" width="10" height="10" transform="rotate(-90 70 110)" fill="#AFADAE"/>
<rect x="90" y="110" width="10" height="10" fill="#938D8F"/>
<rect x="120" y="110" width="10" height="10" fill="#938D8F"/>
<rect x="110" y="110" width="10" height="10" fill="#938D8F"/>
<rect x="100" y="110" width="10" height="10" fill="#AFADAE"/>
<rect x="140" y="110" width="10" height="10" fill="#AFADAE"/>
<rect x="130" y="110" width="10" height="10" fill="#AFADAE"/>
<rect x="160" y="70" width="10" height="10" fill="#AFADAE"/>
<rect x="150" y="70" width="10" height="10" fill="#CCCCCC"/>
<rect x="180" y="70" width="10" height="10" fill="#AFADAE"/>
<rect x="170" y="70" width="10" height="10" fill="#AFADAE"/>
<rect x="160" y="80" width="10" height="10" fill="#AFADAE"/>
<rect x="150" y="80" width="10" height="10" fill="#AFADAE"/>
<rect x="180" y="80" width="10" height="10" fill="#AFADAE"/>
<rect x="170" y="80" width="10" height="10" fill="#AFADAE"/>
<rect x="150" y="90" width="10" height="10" fill="#938D8F"/>
<rect x="170" y="90" width="10" height="10" fill="#938D8F"/>
<rect x="160" y="90" width="10" height="10" fill="#938D8F"/>
<rect x="140" y="70" width="10" height="10" fill="#AFADAE"/>
<rect x="130" y="70" width="10" height="10" fill="#CCCCCC"/>
<rect x="140" y="80" width="10" height="10" fill="#CCCCCC"/>
<rect x="130" y="80" width="10" height="10" fill="#AFADAE"/>
<rect x="130" y="90" width="10" height="10" fill="#938D8F"/>
<rect x="140" y="90" width="10" height="10" fill="#938D8F"/>
<rect x="190" y="90" width="10" height="10" fill="#AFADAE"/>
<rect x="210" y="90" width="10" height="10" fill="#AFADAE"/>
<rect x="200" y="90" width="10" height="10" fill="#AFADAE"/>
<rect x="180" y="90" width="10" height="10" fill="#AFADAE"/>
<rect x="170" y="100" width="10" height="10" fill="#AFADAE"/>
<rect x="160" y="100" width="10" height="10" fill="#938D8F"/>
<rect x="150" y="100" width="10" height="10" fill="#AFADAE"/>
<rect x="140" y="100" width="10" height="10" fill="#AFADAE"/>
<rect x="190" y="100" width="10" height="10" fill="#CCCCCC"/>
<rect x="180" y="100" width="10" height="10" fill="#CCCCCC"/>
<rect x="200" y="100" width="10" height="10" fill="#CCCCCC"/>
<rect x="220" y="100" width="10" height="10" fill="#AFADAE"/>
<rect x="210" y="100" width="10" height="10" fill="#CCCCCC"/>
<rect x="220" y="110" width="10" height="10" fill="#AFADAE"/>
<rect x="210" y="110" width="10" height="10" fill="#CCCCCC"/>
<rect x="150" y="110" width="10" height="10" fill="#AFADAE"/>
<rect x="180" y="110" width="10" height="10" fill="#AFADAE"/>
<rect x="170" y="110" width="10" height="10" fill="#AFADAE"/>
<rect x="160" y="110" width="10" height="10" fill="#938D8F"/>
<rect x="100" y="120" width="10" height="10" fill="#CCCCCC"/>
<rect x="90" y="120" width="10" height="10" fill="#938D8F"/>
<rect x="120" y="120" width="10" height="10" fill="#AFADAE"/>
<rect x="110" y="120" width="10" height="10" fill="#CCCCCC"/>
<rect x="90" y="130" width="10" height="10" fill="#AFADAE"/>
<rect x="110" y="130" width="10" height="10" fill="#AFADAE"/>
<rect x="120" y="130" width="10" height="10" fill="#AFADAE"/>
<rect x="100" y="130" width="10" height="10" fill="#AFADAE"/>
<rect x="110" y="140" width="10" height="10" fill="#AFADAE"/>
<rect x="100" y="140" width="10" height="10" fill="#AFADAE"/>
<rect x="90" y="140" width="10" height="10" fill="#AFADAE"/>
<rect x="130" y="140" width="10" height="10" fill="#AFADAE"/>
<rect x="120" y="140" width="10" height="10" fill="#AFADAE"/>
<rect x="90" y="150" width="10" height="10" fill="#AFADAE"/>
<rect x="120" y="150" width="10" height="10" fill="#CCCCCC"/>
<rect x="110" y="150" width="10" height="10" fill="#AFADAE"/>
<rect x="100" y="150" width="10" height="10" fill="#AFADAE"/>
<rect x="50" y="130" width="10" height="10" fill="#AFADAE"/>
<rect x="70" y="130" width="10" height="10" fill="#938D8F"/>
<rect x="80" y="130" width="10" height="10" fill="#AFADAE"/>
<rect x="60" y="130" width="10" height="10" fill="#AFADAE"/>
<rect x="10" y="130" width="10" height="10" fill="#AFADAE"/>
<rect x="30" y="130" width="10" height="10" fill="#AFADAE"/>
<rect x="40" y="130" width="10" height="10" fill="#CCCCCC"/>
<rect x="20" y="130" width="10" height="10" fill="#AFADAE"/>
<rect x="30" y="140" width="10" height="10" fill="#AFADAE"/>
<rect x="40" y="140" width="10" height="10" fill="#AFADAE"/>
<rect x="20" y="140" width="10" height="10" fill="#AFADAE"/>
<rect x="70" y="140" width="10" height="10" fill="#CCCCCC"/>
<rect x="60" y="140" width="10" height="10" fill="#CCCCCC"/>
<rect x="50" y="140" width="10" height="10" fill="#AFADAE"/>
<rect x="80" y="140" width="10" height="10" fill="#AFADAE"/>
<rect x="50" y="150" width="10" height="10" fill="#AFADAE"/>
<rect x="80" y="150" width="10" height="10" fill="#AFADAE"/>
<rect x="70" y="150" width="10" height="10" fill="#AFADAE"/>
<rect x="60" y="150" width="10" height="10" fill="#AFADAE"/>
<rect x="80" y="170" width="10" height="10" fill="#AFADAE"/>
<rect x="100" y="170" width="10" height="10" fill="#AFADAE"/>
<rect x="90" y="170" width="10" height="10" fill="#AFADAE"/>
<rect x="90" y="180" width="10" height="10" fill="#AFADAE"/>
<rect x="110" y="180" width="10" height="10" fill="#AFADAE"/>
<rect x="100" y="180" width="10" height="10" fill="#AFADAE"/>
<rect x="80" y="190" width="10" height="10" fill="#AFADAE"/>
<rect x="100" y="190" width="10" height="10" fill="#AFADAE"/>
<rect x="90" y="190" width="10" height="10" fill="#CCCCCC"/>
<rect x="50" y="160" width="10" height="10" fill="#AFADAE"/>
<rect x="50" y="170" width="10" height="10" fill="#AFADAE"/>
<rect x="70" y="160" width="10" height="10" fill="#AFADAE"/>
<rect x="70" y="170" width="10" height="10" fill="#AFADAE"/>
<rect x="70" y="180" width="10" height="10" fill="#AFADAE"/>
<rect x="60" y="180" width="10" height="10" fill="#AFADAE"/>
<rect x="70" y="190" width="10" height="10" fill="#AFADAE"/>
<rect x="60" y="160" width="10" height="10" fill="#AFADAE"/>
<rect x="140" y="150" width="10" height="10" fill="#AFADAE"/>
<rect x="130" y="150" width="10" height="10" fill="#CCCCCC"/>
<rect x="120" y="160" width="10" height="10" fill="#CCCCCC"/>
<rect x="110" y="160" width="10" height="10" fill="#CCCCCC"/>
<rect x="140" y="160" width="10" height="10" fill="#AFADAE"/>
<rect x="130" y="160" width="10" height="10" fill="#AFADAE"/>
<rect x="140" y="170" width="10" height="10" fill="#AFADAE"/>
<rect x="130" y="170" width="10" height="10" fill="#AFADAE"/>
<rect x="140" y="180" width="10" height="10" fill="#AFADAE"/>
<rect x="130" y="180" width="10" height="10" fill="#CCCCCC"/>
<rect x="130" y="190" width="10" height="10" fill="#CCCCCC"/>
<rect x="160" y="120" width="10" height="10" fill="#AFADAE"/>
<rect x="150" y="120" width="10" height="10" fill="#AFADAE"/>
<rect x="170" y="120" width="10" height="10" fill="#AFADAE"/>
<rect x="150" y="130" width="10" height="10" fill="#AFADAE"/>
<rect x="170" y="130" width="10" height="10" fill="#938D8F"/>
<rect x="160" y="130" width="10" height="10" fill="#AFADAE"/>
<rect x="140" y="120" width="10" height="10" fill="#AFADAE"/>
<rect x="130" y="120" width="10" height="10" fill="#938D8F"/>
<rect x="130" y="130" width="10" height="10" fill="#938D8F"/>
<rect x="140" y="130" width="10" height="10" fill="#938D8F"/>
<rect x="170" y="140" width="10" height="10" fill="#AFADAE"/>
<rect x="160" y="140" width="10" height="10" fill="#938D8F"/>
<rect x="150" y="140" width="10" height="10" fill="#AFADAE"/>
<rect x="140" y="140" width="10" height="10" fill="#AFADAE"/>
<rect x="150" y="150" width="10" height="10" fill="#AFADAE"/>
<rect x="170" y="150" width="10" height="10" fill="#AFADAE"/>
<rect x="160" y="150" width="10" height="10" fill="#938D8F"/>
<rect x="150" y="160" width="10" height="10" fill="#AFADAE"/>
<rect x="170" y="160" width="10" height="10" fill="#AFADAE"/>
<rect x="160" y="160" width="10" height="10" fill="#AFADAE"/>
<rect x="150" y="160" width="10" height="10" fill="#AFADAE"/>
<rect x="170" y="160" width="10" height="10" fill="#AFADAE"/>
<rect x="160" y="160" width="10" height="10" fill="#938D8F"/>
<rect x="180" y="150" width="10" height="10" fill="#938D8F"/>
<rect x="200" y="120" width="10" height="10" fill="#AFADAE"/>
<rect x="190" y="120" width="10" height="10" fill="#AFADAE"/>
<rect x="210" y="120" width="10" height="10" fill="#AFADAE"/>
<rect x="190" y="130" width="10" height="10" fill="#AFADAE"/>
<rect x="210" y="130" width="10" height="10" fill="#AFADAE"/>
<rect x="200" y="130" width="10" height="10" fill="#AFADAE"/>
<rect x="180" y="120" width="10" height="10" fill="#CCCCCC"/>
<rect x="180" y="130" width="10" height="10" fill="#AFADAE"/>
<rect x="210" y="140" width="10" height="10" fill="#AFADAE"/>
<rect x="200" y="140" width="10" height="10" fill="#AFADAE"/>
<rect x="190" y="140" width="10" height="10" fill="#AFADAE"/>
<rect x="200" y="120" width="10" height="10" fill="#CCCCCC"/>
<rect x="190" y="120" width="10" height="10" fill="#AFADAE"/>
<rect x="210" y="120" width="10" height="10" fill="#CCCCCC"/>
<rect x="190" y="120" width="10" height="10" fill="#CCCCCC"/>
<rect x="210" y="130" width="10" height="10" fill="#CCCCCC"/>
<rect x="200" y="130" width="10" height="10" fill="#AFADAE"/>
<rect x="210" y="140" width="10" height="10" fill="#AFADAE"/>
<rect x="200" y="140" width="10" height="10" fill="#AFADAE"/>
<rect x="220" y="120" width="10" height="10" fill="#AFADAE"/>
<rect x="230" y="120" width="10" height="10" fill="#AFADAE"/>
<rect x="230" y="130" width="10" height="10" fill="#AFADAE"/>
<rect x="220" y="130" width="10" height="10" fill="#AFADAE"/>
<rect x="230" y="140" width="10" height="10" fill="#AFADAE"/>
<rect x="220" y="140" width="10" height="10" fill="#AFADAE"/>
<rect x="220" y="120" width="10" height="10" fill="#AFADAE"/>
<rect x="230" y="120" width="10" height="10" fill="#AFADAE"/>
<rect x="230" y="130" width="10" height="10" fill="#AFADAE"/>
<rect x="220" y="130" width="10" height="10" fill="#AFADAE"/>
<rect x="230" y="140" width="10" height="10" fill="#AFADAE"/>
<rect x="240" y="140" width="10" height="10" fill="#AFADAE"/>
<rect x="230" y="150" width="10" height="10" fill="#AFADAE"/>
<rect x="220" y="140" width="10" height="10" fill="#AFADAE"/>
<rect x="190" y="140" width="10" height="10" fill="#AFADAE"/>
<rect x="180" y="140" width="10" height="10" fill="#AFADAE"/>
<rect x="190" y="150" width="10" height="10" fill="#938D8F"/>
<rect x="210" y="150" width="10" height="10" fill="#AFADAE"/>
<rect x="200" y="150" width="10" height="10" fill="#AFADAE"/>
<rect x="180" y="170" width="10" height="10" fill="#AFADAE"/>
<rect x="210" y="160" width="10" height="10" fill="#AFADAE"/>
<rect x="200" y="160" width="10" height="10" fill="#CCCCCC"/>
<rect x="190" y="160" width="10" height="10" fill="#938D8F"/>
<rect x="180" y="160" width="10" height="10" fill="#AFADAE"/>
<rect x="190" y="170" width="10" height="10" fill="#AFADAE"/>
<rect x="210" y="170" width="10" height="10" fill="#AFADAE"/>
<rect x="200" y="170" width="10" height="10" fill="#938D8F"/>
<rect x="190" y="180" width="10" height="10" fill="#AFADAE"/>
<rect x="210" y="180" width="10" height="10" fill="#AFADAE"/>
<rect x="200" y="180" width="10" height="10" fill="#AFADAE"/>
<rect x="210" y="190" width="10" height="10" fill="#AFADAE"/>
<rect x="200" y="190" width="10" height="10" fill="#AFADAE"/>
<rect x="190" y="190" width="10" height="10" fill="#AFADAE"/>
<rect x="190" y="200" width="10" height="10" fill="#938D8F"/>
<rect x="210" y="200" width="10" height="10" fill="#AFADAE"/>
<rect x="220" y="190" width="10" height="10" fill="#AFADAE"/>
<rect x="220" y="200" width="10" height="10" fill="#AFADAE"/>
<rect x="200" y="200" width="10" height="10" fill="#AFADAE"/>
<rect x="200" y="110" width="10" height="10" fill="#CCCCCC"/>
<rect x="190" y="110" width="11" height="10" fill="#CCCCCC"/>
<rect x="60" y="120" width="10" height="10" transform="rotate(-90 60 120)" fill="#AFADAE"/>
<rect x="70" y="120" width="10" height="10" transform="rotate(-90 70 120)" fill="#AFADAE"/>
<rect x="50" y="120" width="10" height="10" transform="rotate(-90 50 120)" fill="#AFADAE"/>
<rect x="80" y="120" width="10" height="10" transform="rotate(-90 80 120)" fill="#938D8F"/>
<rect x="40" y="150" width="10" height="10" fill="#938D8F"/>
<rect x="40" y="170" width="10" height="10" fill="#938D8F"/>
<rect x="40" y="160" width="10" height="10" fill="#938D8F"/>
<rect x="40" y="180" width="10" height="10" fill="#938D8F"/>
<rect x="60" y="200" width="10" height="10" fill="#938D8F"/>
<rect x="80" y="200" width="10" height="10" transform="rotate(90 80 200)" fill="#938D8F"/>
<rect x="60" y="246" width="10" height="10" transform="rotate(90 60 246)" fill="#938D8F"/>
<rect x="70" y="246" width="10" height="10" transform="rotate(90 70 246)" fill="#938D8F"/>
<rect x="60" y="256" width="10" height="10" transform="rotate(90 60 256)" fill="#938D8F"/>
<rect x="70" y="256" width="10" height="10" transform="rotate(90 70 256)" fill="#AFADAE"/>
<rect x="280" y="220" width="10" height="10" transform="rotate(-90 280 220)" fill="#938D8F"/>
<rect x="280" y="244" width="10" height="10" transform="rotate(-90 280 244)" fill="#938D8F"/>
<rect x="270" y="220" width="10" height="10" transform="rotate(-90 270 220)" fill="#938D8F"/>
<rect x="280" y="210" width="10" height="10" transform="rotate(-90 280 210)" fill="#938D8F"/>
<rect x="270" y="210" width="10" height="10" transform="rotate(-90 270 210)" fill="#AFADAE"/>
</svg>
