<svg width="94" height="198" viewBox="0 0 94 198" fill="none" xmlns="http://www.w3.org/2000/svg">
<path d="M93.375 176.652H83V187.043H93.375V176.652Z" fill="#21201E"/>
<path d="M93.375 166.261H83V176.652H93.375V166.261Z" fill="#21201E"/>
<path d="M93.375 155.869H83V166.26H93.375V155.869Z" fill="#21201E"/>
<path d="M93.375 145.478H83V155.869H93.375V145.478Z" fill="#21201E"/>
<path d="M93.375 135.087H83V145.478H93.375V135.087Z" fill="#21201E"/>
<path d="M93.375 124.695H83V135.087H93.375V124.695Z" fill="#21201E"/>
<path d="M93.375 114.304H83V124.696H93.375V114.304Z" fill="#21201E"/>
<path d="M93.375 103.913H83V114.304H93.375V103.913Z" fill="#21201E"/>
<path d="M93.375 93.5215H83V103.913H93.375V93.5215Z" fill="#21201E"/>
<path d="M93.375 83.1304H83V93.5217H93.375V83.1304Z" fill="#21201E"/>
<path d="M93.375 72.7388H83V83.1301H93.375V72.7388Z" fill="#21201E"/>
<path d="M93.375 62.3477H83V72.739H93.375V62.3477Z" fill="#21201E"/>
<path d="M93.375 51.9561H83V62.3474H93.375V51.9561Z" fill="#21201E"/>
<path d="M83 187.043H72.625V197.435H83V187.043Z" fill="#21201E"/>
<path d="M83 176.652H72.625V187.043H83V176.652Z" fill="#A4CDFF"/>
<path d="M83 166.261H72.625V176.652H83V166.261Z" fill="#A4CDFF"/>
<path d="M83 155.869H72.625V166.26H83V155.869Z" fill="#A4CDFF"/>
<path d="M83 145.478H72.625V155.869H83V145.478Z" fill="#A4CDFF"/>
<path d="M83 135.087H72.625V145.478H83V135.087Z" fill="#A4CDFF"/>
<path d="M83 124.695H72.625V135.087H83V124.695Z" fill="#A4CDFF"/>
<path d="M83 114.304H72.625V124.696H83V114.304Z" fill="#A4CDFF"/>
<path d="M83 103.913H72.625V114.304H83V103.913Z" fill="#A4CDFF"/>
<path d="M83 93.5215H72.625V103.913H83V93.5215Z" fill="#A4CDFF"/>
<path d="M83 83.1304H72.625V93.5217H83V83.1304Z" fill="#A4CDFF"/>
<path d="M83 72.7388H72.625V83.1301H83V72.7388Z" fill="#A4CDFF"/>
<path d="M83 62.3477H72.625V72.739H83V62.3477Z" fill="#FF9C31"/>
<path d="M83 51.9561H72.625V62.3474H83V51.9561Z" fill="#FF9C31"/>
<path d="M83 41.5649H72.625V51.9562H83V41.5649Z" fill="#21201E"/>
<path d="M72.625 187.043H62.25V197.435H72.625V187.043Z" fill="#21201E"/>
<path d="M72.625 176.652H62.25V187.043H72.625V176.652Z" fill="#43A1FF"/>
<path d="M72.625 166.261H62.25V176.652H72.625V166.261Z" fill="#43A1FF"/>
<path d="M72.625 155.869H62.25V166.26H72.625V155.869Z" fill="#43A1FF"/>
<path d="M72.625 145.478H62.25V155.869H72.625V145.478Z" fill="#43A1FF"/>
<path d="M72.625 135.087H62.25V145.478H72.625V135.087Z" fill="#43A1FF"/>
<path d="M72.625 124.695H62.25V135.087H72.625V124.695Z" fill="#43A1FF"/>
<path d="M72.625 114.304H62.25V124.696H72.625V114.304Z" fill="#43A1FF"/>
<path d="M72.625 103.913H62.25V114.304H72.625V103.913Z" fill="#43A1FF"/>
<path d="M72.625 93.5215H62.25V103.913H72.625V93.5215Z" fill="#43A1FF"/>
<path d="M72.625 83.1304H62.25V93.5217H72.625V83.1304Z" fill="#FF9C31"/>
<path d="M72.625 72.7388H62.25V83.1301H72.625V72.7388Z" fill="#FF9C31"/>
<path d="M72.625 62.3477H62.25V72.739H72.625V62.3477Z" fill="#FF9C31"/>
<path d="M72.625 51.9561H62.25V62.3474H72.625V51.9561Z" fill="#FF9C31"/>
<path d="M72.625 41.5649H62.25V51.9562H72.625V41.5649Z" fill="#21201E"/>
<path d="M72.625 31.1738H62.25V41.5651H72.625V31.1738Z" fill="#21201E"/>
<path d="M62.25 187.043H51.875V197.435H62.25V187.043Z" fill="#21201E"/>
<path d="M62.25 176.652H51.875V187.043H62.25V176.652Z" fill="#83B6FF"/>
<path d="M62.25 166.261H51.875V176.652H62.25V166.261Z" fill="#83B6FF"/>
<path d="M62.25 155.869H51.875V166.26H62.25V155.869Z" fill="#83B6FF"/>
<path d="M62.25 145.478H51.875V155.869H62.25V145.478Z" fill="#83B6FF"/>
<path d="M62.25 135.087H51.875V145.478H62.25V135.087Z" fill="#83B6FF"/>
<path d="M62.25 124.695H51.875V135.087H62.25V124.695Z" fill="#83B6FF"/>
<path d="M62.25 114.304H51.875V124.696H62.25V114.304Z" fill="#83B6FF"/>
<path d="M62.25 103.913H51.875V114.304H62.25V103.913Z" fill="#83B6FF"/>
<path d="M62.25 93.5215H51.875V103.913H62.25V93.5215Z" fill="#83B6FF"/>
<path d="M62.25 83.1304H51.875V93.5217H62.25V83.1304Z" fill="#83B6FF"/>
<path d="M62.25 72.7388H51.875V83.1301H62.25V72.7388Z" fill="#83B6FF"/>
<path d="M62.25 62.3477H51.875V72.739H62.25V62.3477Z" fill="#FF9C31"/>
<path d="M62.25 51.9561H51.875V62.3474H62.25V51.9561Z" fill="#FF9C31"/>
<path d="M62.25 41.5649H51.875V51.9562H62.25V41.5649Z" fill="#21201E"/>
<path d="M62.25 31.1738H51.875V41.5651H62.25V31.1738Z" fill="#EAEAEA"/>
<path d="M62.25 20.7822H51.875V31.1735H62.25V20.7822Z" fill="#21201E"/>
<path d="M62.25 10.3911H51.875V20.7824H62.25V10.3911Z" fill="#21201E"/>
<path d="M62.25 0H51.875V10.3913H62.25V0Z" fill="#21201E"/>
<path d="M51.875 187.043H41.5V197.435H51.875V187.043Z" fill="#21201E"/>
<path d="M51.875 176.652H41.5V187.043H51.875V176.652Z" fill="#83B6FF"/>
<path d="M51.875 166.261H41.5V176.652H51.875V166.261Z" fill="#83B6FF"/>
<path d="M51.875 155.869H41.5V166.26H51.875V155.869Z" fill="#83B6FF"/>
<path d="M51.875 145.478H41.5V155.869H51.875V145.478Z" fill="#83B6FF"/>
<path d="M51.875 135.087H41.5V145.478H51.875V135.087Z" fill="#83B6FF"/>
<path d="M51.875 124.695H41.5V135.087H51.875V124.695Z" fill="#83B6FF"/>
<path d="M51.875 114.304H41.5V124.696H51.875V114.304Z" fill="#83B6FF"/>
<path d="M51.875 103.913H41.5V114.304H51.875V103.913Z" fill="#83B6FF"/>
<path d="M51.875 93.5215H41.5V103.913H51.875V93.5215Z" fill="#83B6FF"/>
<path d="M51.875 83.1304H41.5V93.5217H51.875V83.1304Z" fill="#83B6FF"/>
<path d="M51.875 72.7388H41.5V83.1301H51.875V72.7388Z" fill="#83B6FF"/>
<path d="M51.875 62.3477H41.5V72.739H51.875V62.3477Z" fill="#FF9C31"/>
<path d="M51.875 51.9561H41.5V62.3474H51.875V51.9561Z" fill="#FF9C31"/>
<path d="M51.875 41.5649H41.5V51.9562H51.875V41.5649Z" fill="#21201E"/>
<path d="M51.875 31.1738H41.5V41.5651H51.875V31.1738Z" fill="#EAEAEA"/>
<path d="M51.875 20.7822H41.5V31.1735H51.875V20.7822Z" fill="#21201E"/>
<path d="M51.875 10.3911H41.5V20.7824H51.875V10.3911Z" fill="#FF9C31"/>
<path d="M51.875 0H41.5V10.3913H51.875V0Z" fill="#21201E"/>
<path d="M41.5 187.043H31.125V197.435H41.5V187.043Z" fill="#21201E"/>
<path d="M41.5 176.652H31.125V187.043H41.5V176.652Z" fill="#A4CDFF"/>
<path d="M41.5 166.261H31.125V176.652H41.5V166.261Z" fill="#A4CDFF"/>
<path d="M41.5 155.869H31.125V166.26H41.5V155.869Z" fill="#A4CDFF"/>
<path d="M41.5 145.478H31.125V155.869H41.5V145.478Z" fill="#A4CDFF"/>
<path d="M41.5 135.087H31.125V145.478H41.5V135.087Z" fill="#A4CDFF"/>
<path d="M41.5 124.695H31.125V135.087H41.5V124.695Z" fill="#A4CDFF"/>
<path d="M41.5 114.304H31.125V124.696H41.5V114.304Z" fill="#A4CDFF"/>
<path d="M41.5 103.913H31.125V114.304H41.5V103.913Z" fill="#A4CDFF"/>
<path d="M41.5 93.5215H31.125V103.913H41.5V93.5215Z" fill="#FF9C31"/>
<path d="M41.5 83.1304H31.125V93.5217H41.5V83.1304Z" fill="#FF9C31"/>
<path d="M41.5 72.7388H31.125V83.1301H41.5V72.7388Z" fill="#FF9C31"/>
<path d="M41.5 62.3477H31.125V72.739H41.5V62.3477Z" fill="#FF9C31"/>
<path d="M41.5 51.9561H31.125V62.3474H41.5V51.9561Z" fill="#FF9C31"/>
<path d="M41.5 41.5649H31.125V51.9562H41.5V41.5649Z" fill="#21201E"/>
<path d="M41.5 31.1738H31.125V41.5651H41.5V31.1738Z" fill="#EAEAEA"/>
<path d="M41.5 20.7822H31.125V31.1735H41.5V20.7822Z" fill="#21201E"/>
<path d="M41.5 10.3911H31.125V20.7824H41.5V10.3911Z" fill="#21201E"/>
<path d="M41.5 0H31.125V10.3913H41.5V0Z" fill="#21201E"/>
<path d="M31.125 187.043H20.75V197.435H31.125V187.043Z" fill="#21201E"/>
<path d="M31.125 176.652H20.75V187.043H31.125V176.652Z" fill="#43A1FF"/>
<path d="M31.125 166.261H20.75V176.652H31.125V166.261Z" fill="#43A1FF"/>
<path d="M31.125 155.869H20.75V166.26H31.125V155.869Z" fill="#43A1FF"/>
<path d="M31.125 145.478H20.75V155.869H31.125V145.478Z" fill="#43A1FF"/>
<path d="M31.125 135.087H20.75V145.478H31.125V135.087Z" fill="#43A1FF"/>
<path d="M31.125 124.695H20.75V135.087H31.125V124.695Z" fill="#43A1FF"/>
<path d="M31.125 114.304H20.75V124.696H31.125V114.304Z" fill="#43A1FF"/>
<path d="M31.125 103.913H20.75V114.304H31.125V103.913Z" fill="#43A1FF"/>
<path d="M31.125 93.5215H20.75V103.913H31.125V93.5215Z" fill="#43A1FF"/>
<path d="M31.125 83.1304H20.75V93.5217H31.125V83.1304Z" fill="#43A1FF"/>
<path d="M31.125 72.7388H20.75V83.1301H31.125V72.7388Z" fill="#43A1FF"/>
<path d="M31.125 62.3477H20.75V72.739H31.125V62.3477Z" fill="#43A1FF"/>
<path d="M31.125 51.9561H20.75V62.3474H31.125V51.9561Z" fill="#FF9C31"/>
<path d="M31.125 41.5649H20.75V51.9562H31.125V41.5649Z" fill="#21201E"/>
<path d="M31.125 31.1738H20.75V41.5651H31.125V31.1738Z" fill="#21201E"/>
<path d="M20.75 187.043H10.375V197.435H20.75V187.043Z" fill="#21201E"/>
<path d="M20.75 176.652H10.375V187.043H20.75V176.652Z" fill="#43A1FF"/>
<path d="M20.75 166.261H10.375V176.652H20.75V166.261Z" fill="#43A1FF"/>
<path d="M20.75 155.869H10.375V166.26H20.75V155.869Z" fill="#43A1FF"/>
<path d="M20.75 145.478H10.375V155.869H20.75V145.478Z" fill="#43A1FF"/>
<path d="M20.75 135.087H10.375V145.478H20.75V135.087Z" fill="#43A1FF"/>
<path d="M20.75 124.695H10.375V135.087H20.75V124.695Z" fill="#43A1FF"/>
<path d="M20.75 114.304H10.375V124.696H20.75V114.304Z" fill="#43A1FF"/>
<path d="M20.75 103.913H10.375V114.304H20.75V103.913Z" fill="#43A1FF"/>
<path d="M20.75 93.5215H10.375V103.913H20.75V93.5215Z" fill="#43A1FF"/>
<path d="M20.75 83.1304H10.375V93.5217H20.75V83.1304Z" fill="#43A1FF"/>
<path d="M20.75 72.7388H10.375V83.1301H20.75V72.7388Z" fill="#43A1FF"/>
<path d="M20.75 62.3477H10.375V72.739H20.75V62.3477Z" fill="#43A1FF"/>
<path d="M20.75 51.9561H10.375V62.3474H20.75V51.9561Z" fill="#FF9C31"/>
<path d="M20.75 41.5649H10.375V51.9562H20.75V41.5649Z" fill="#21201E"/>
<path d="M10.375 176.652H0V187.043H10.375V176.652Z" fill="#21201E"/>
<path d="M10.375 166.261H0V176.652H10.375V166.261Z" fill="#21201E"/>
<path d="M10.375 155.869H0V166.26H10.375V155.869Z" fill="#21201E"/>
<path d="M10.375 145.478H0V155.869H10.375V145.478Z" fill="#21201E"/>
<path d="M10.375 135.087H0V145.478H10.375V135.087Z" fill="#21201E"/>
<path d="M10.375 124.695H0V135.087H10.375V124.695Z" fill="#21201E"/>
<path d="M10.375 114.304H0V124.696H10.375V114.304Z" fill="#21201E"/>
<path d="M10.375 103.913H0V114.304H10.375V103.913Z" fill="#21201E"/>
<path d="M10.375 93.5215H0V103.913H10.375V93.5215Z" fill="#21201E"/>
<path d="M10.375 83.1304H0V93.5217H10.375V83.1304Z" fill="#21201E"/>
<path d="M10.375 72.7388H0V83.1301H10.375V72.7388Z" fill="#21201E"/>
<path d="M10.375 62.3477H0V72.739H10.375V62.3477Z" fill="#21201E"/>
<path d="M10.375 51.9561H0V62.3474H10.375V51.9561Z" fill="#21201E"/>
</svg>
